<?xml version="1.0" encoding="utf-8"?>
<!-- Generator: Adobe Illustrator 26.0.3, SVG Export Plug-In . SVG Version: 6.00 Build 0)  -->
<svg version="1.1" xmlns="http://www.w3.org/2000/svg" xmlns:xlink="http://www.w3.org/1999/xlink" x="0px" y="0px"
	 viewBox="0 0 2500 1600" style="enable-background:new 0 0 2500 1600;" xml:space="preserve">
<style type="text/css">
	.st0{fill-rule:evenodd;clip-rule:evenodd;fill:#F8CBC5;}
	.st1{fill-rule:evenodd;clip-rule:evenodd;fill:#FCE7E5;}
	.st2{fill-rule:evenodd;clip-rule:evenodd;fill:#FAD9D3;}
	.st3{fill-rule:evenodd;clip-rule:evenodd;fill:#FEF2F1;}
	.st4{fill-rule:evenodd;clip-rule:evenodd;fill:#FFFFFF;}
	.st5{fill-rule:evenodd;clip-rule:evenodd;fill:#33744C;}
	.st6{fill-rule:evenodd;clip-rule:evenodd;fill:#56B264;}
	.st7{fill-rule:evenodd;clip-rule:evenodd;fill:#F3A69B;}
	.st8{fill-rule:evenodd;clip-rule:evenodd;fill:#F6BAB2;}
	.st9{fill-rule:evenodd;clip-rule:evenodd;fill:#E39589;}
	.st10{fill-rule:evenodd;clip-rule:evenodd;fill:#8E3929;}
	.st11{fill-rule:evenodd;clip-rule:evenodd;fill:#E1405D;}
	.st12{fill-rule:evenodd;clip-rule:evenodd;fill:#C12C49;}
	.st13{fill-rule:evenodd;clip-rule:evenodd;fill:#59AAC6;}
	.st14{fill-rule:evenodd;clip-rule:evenodd;fill:#318CAA;}
	.st15{fill-rule:evenodd;clip-rule:evenodd;fill:#FCCD37;}
	.st16{fill-rule:evenodd;clip-rule:evenodd;fill:#83416E;}
	.st17{fill-rule:evenodd;clip-rule:evenodd;fill:#F1A518;}
	.st18{fill-rule:evenodd;clip-rule:evenodd;fill:#FEE183;}
	.st19{fill-rule:evenodd;clip-rule:evenodd;fill:#692955;}
	.st20{fill-rule:evenodd;clip-rule:evenodd;fill:#DF9285;}
	.st21{fill-rule:evenodd;clip-rule:evenodd;fill:#C983B1;}
	.st22{fill-rule:evenodd;clip-rule:evenodd;fill:#91D3EA;}
	.st23{fill-rule:evenodd;clip-rule:evenodd;fill:#F8CDCD;}
	.st24{fill-rule:evenodd;clip-rule:evenodd;fill:#F2A3A4;}
	.st25{fill-rule:evenodd;clip-rule:evenodd;fill:#FCE9EA;}
	.st26{fill-rule:evenodd;clip-rule:evenodd;fill:#EA5E7C;}
	.st27{fill-rule:evenodd;clip-rule:evenodd;fill:#E84965;}
	.st28{fill-rule:evenodd;clip-rule:evenodd;fill:#F2A1B3;}
	.st29{fill-rule:evenodd;clip-rule:evenodd;fill:#EB6B84;}
	.st30{fill-rule:evenodd;clip-rule:evenodd;fill:#B37248;}
	.st31{fill-rule:evenodd;clip-rule:evenodd;fill:#91582F;}
	.st32{fill-rule:evenodd;clip-rule:evenodd;fill:#D58E60;}
	.st33{fill-rule:evenodd;clip-rule:evenodd;fill:#F4B790;}
	.st34{fill-rule:evenodd;clip-rule:evenodd;fill:#EDBF6A;}
	.st35{fill-rule:evenodd;clip-rule:evenodd;fill:#BDD4EE;}
	.st36{fill-rule:evenodd;clip-rule:evenodd;fill:#D3E2F4;}
	.st37{fill-rule:evenodd;clip-rule:evenodd;fill:#85AADA;}
	.st38{fill-rule:evenodd;clip-rule:evenodd;fill:#EFF6FC;}
	.st39{fill-rule:evenodd;clip-rule:evenodd;fill:#B1CCEB;}
	.st40{fill-rule:evenodd;clip-rule:evenodd;fill:#95B9E2;}
	.st41{fill-rule:evenodd;clip-rule:evenodd;fill:#C27C4E;}
	.st42{fill-rule:evenodd;clip-rule:evenodd;fill:#2B0B28;}
	.st43{fill-rule:evenodd;clip-rule:evenodd;fill:#F5B293;}
	.st44{fill-rule:evenodd;clip-rule:evenodd;fill:#ED798F;}
	.st45{fill-rule:evenodd;clip-rule:evenodd;fill:#EB667D;}
	.st46{fill-rule:evenodd;clip-rule:evenodd;fill:#C22848;}
	.st47{fill-rule:evenodd;clip-rule:evenodd;fill:#D38A66;}
	.st48{fill-rule:evenodd;clip-rule:evenodd;fill:#BC7756;}
	.st49{fill-rule:evenodd;clip-rule:evenodd;fill:#2C2C2B;}
	.st50{fill-rule:evenodd;clip-rule:evenodd;fill:#414141;}
	.st51{fill-rule:evenodd;clip-rule:evenodd;fill:#773662;}
	.st52{fill-rule:evenodd;clip-rule:evenodd;fill:#E9A88B;}
	.st53{fill-rule:evenodd;clip-rule:evenodd;fill:#E69D78;}
	.st54{fill-rule:evenodd;clip-rule:evenodd;fill:#ED7E95;}
	.st55{fill-rule:evenodd;clip-rule:evenodd;fill:#E9546F;}
	.st56{fill-rule:evenodd;clip-rule:evenodd;fill:#9A5F3F;}
	.st57{fill-rule:evenodd;clip-rule:evenodd;fill:#961E31;}
	.st58{fill-rule:evenodd;clip-rule:evenodd;fill:#595757;}
	.st59{fill-rule:evenodd;clip-rule:evenodd;fill:#464544;}
	.st60{fill-rule:evenodd;clip-rule:evenodd;fill:#727171;}
</style>
<g id="Background">
	<g id="CloudBg">
		<rect class="st0" width="2500" height="1600"/>
		<g>
			<g>
				
					<ellipse transform="matrix(0.7071 -0.7071 0.7071 0.7071 -6.8037 1464.6964)" class="st1" cx="1764.6" cy="740.6" rx="643.5" ry="643.5"/>
				<g>
					<path class="st2" d="M0,434.3v-36.5c154.9-19.8,460-62.2,458.9-89.2c-0.7-19-236.3-23.8-458.9-24v-40
						c192-2.8,675.7-3.7,693.3,60.9C709.7,365.5,241.1,413.7,0,434.3z"/>
					<path class="st2" d="M2500,240v40.7L680.8,395C1506,177.9,531.3,172,0,186.5v-75.8c380.2-22.5,1507.9-73.7,1012.1,203.1
						L2500,240L2500,240z M2500,620.3v12.9c-352.9,69.7-1803.5,321.5-1124.4-116.9C1241.8,524.9,328.1,572.1,0,589v-60.9
						c331.5-22,1612.1-87.3,1612.1-87.3C994.2,793,2425.4,632.3,2500,620.3L2500,620.3z M0,498.3l20.4-9.6
						c-6.9,0.5-13.8,0.9-20.4,1.3V498.3z"/>
					<path class="st3" d="M2187.5,255.5c15.3,13.3,29.9,27.4,43.9,42.1l-985.3,61.9c15.4-20.9,32.1-40.9,49.8-59.8L2187.5,255.5
						L2187.5,255.5z M2399,632.2c1.1,6.5,2.1,13.1,3,19.7c-462.9,85.3-1654,269.6-1026.5-135.5c-32.8,2.1-112.4,6.5-218.6,12.2
						c7.8-22.4,16.8-44.3,27-65.6c245.3-12.8,428.1-22.1,428.1-22.1C1080.3,743.9,2066.4,667.1,2399,632.2z"/>
				</g>
			</g>
			<path class="st4" d="M2500,1041.9v10.4h-684.8c649.3-251.3-399.9-92.2-535.4-58.3c-7.1,1.8-77.1,0.2-155.2-2.3
				c287.8-85.9,344.7-203.2-25.1-120.6L991.7,987.1c-53.6-2-93.2-3.6-93.2-3.6l-213.6-69.8c0,0,0,0,409.4-84.4
				c409.4-84.4,331.2,89.6,331.2,89.6c118.6-30.9,1141.8-272.8,566.7,85.4L2500,1041.9z"/>
		</g>
	</g>
</g>
<g id="Illustration">
	<g>
		<g id="Tree2">
			<path class="st5" d="M2073.3,0H2500v208.2c-99.6,38.7-179.9-17.3-135-163.2C2277.5,99.2,2078.3,138.5,2073.3,0z"/>
			<path class="st6" d="M2178.9,0h132.5c-12.1,8.1-26.3,16.8-41,23.7c8.2,1,19.7,3.3,25.6,8.8c9.8,9.1,18.2,19.5,18.2,19.5
				s-23.2,2-35.9-3.3c-6.2-2.5-12.3-7-17-11c2.2,5.2,3.8,12.3,3.8,22.2c0,30-15,65-15,65s-18.7-32.7-20-55
				c-0.8-13.7,6.9-27.5,13-36.1C2214.4,41.3,2188.4,36,2178.9,0L2178.9,0z M2431.6,91.2c-13.6,21-1.8,50.9,3.4,73.8
				c0,0,16.4-32.5,15-50c-0.4-4.7-1.1-8.8-1.9-12.3c15,7.8,33,12,51.9,12V0h-81c-13.6,30.3-12.1,55.5-1.3,74.4
				c-4.9,1.3-10.1,3.8-14.9,8.2C2386.4,97.8,2380,115,2380,115s33.5-10.7,40-15c3.4-2.3,7.4-6.3,10.4-9.6
				C2430,90,2432,91.6,2431.6,91.2z"/>
		</g>
		<g>
			<path class="st7" d="M1984,1417.5H41.2L0,1407.9V762c5-3.5,10.6-7.5,16.6-12c31.4-23.3,47.7-53.5,125.6-11.6
				c77.9,41.9,172.1,129.1,254.7,150c204.4,51.8,428.9-287.8,540-299.9c90.2-9.8,385.2,336.1,480.8,420c4.4,3.9,87.6,52.8,87.9,52.8
				c43.7,2.5,77.7-23.8,98.5-31.1c37-12.9,136.1-93.3,165.9-95.3c15.1-1,29.7,2.7,61.7,16.5c151.9,65.7,452.3,266.7,499.8,299.9
				C2331.6,1251.4,2092.4,1270.9,1984,1417.5z"/>
			<path class="st8" d="M120.9,728.1c6.6,2.8,13.6,6.2,21.3,10.3c38.9,20.9,81.9,53.1,125.4,82.8l-2.1,6.1
				c0,0-110.6-52.3-140.6-62.3c-30-10-40-20-35-30C94.9,725.2,120.1,728,120.9,728.1z"/>
			<path class="st8" d="M1547,1055.7L1547,1055.7L1547,1055.7L1547,1055.7L1547,1055.7z M1550.9,1054.4
				c22.3-7.7,40.3-19.6,53.3-24.1c29.2-10.2,97.1-62.4,139.1-85c0.6-0.2,16.9-5.1,21.8,9.7c5,15-58.5,35.2-91.7,52.6
				C1644,1022.9,1568.7,1048.5,1550.9,1054.4z"/>
			<path class="st8" d="M970.6,596.1c114.1,50.4,358.2,333.6,445.5,411.1c-91.7-57.4-264-169.2-311.1-227.1c-65-80-185-115-180-150
				C929.9,596,968.5,596,970.6,596.1z"/>
			<path class="st9" d="M1702.6,1417.5H41.2L0,1407.9v-473c47.5,26.9,103.3,23.9,127.7,20.5c37.5-5.2,20.8-2.1,126-1
				c105.2,1,136.5,32.3,237.5,42.7c101,10.4,259-94.9,378.8-99.1c131.8-4.6,335.2,123.3,522.6,203.7
				c112.4,48.2,269.2,59.4,331.4,45.9c70.2-15.2,361.1-19.3,259.1-116.2c50.2,24.4,126.4,71.8,194.8,116.4
				c12.7,44.3,11.8,96.3,8,135.7c-52,17.6-109.3,44.5-156.3,85.1C1944.2,1382.1,1828.8,1399.7,1702.6,1417.5z"/>
		</g>
		<g>
			<path id="Cloud3" class="st4" d="M1222.9,427h31.6l25.7-17.4h228.6c6.1,0,5.3-0.4-0.5-1.1l0,0l-0.1,0c-3.1-0.4-7.5-0.8-13-1.3
				l-176.5-18.1c-12.4-51-62.9-72.5-96.9-32.4c-17.2-88-135.7-83.8-152.5,4.3c0,0-29.7-18.9-56.1-9.3c-32.7,12-21.1,50-36.4,51.7
				c-7,0.8-12.4-4.2-19.8-9.7c-21.6-16-63.3-21.3-74.1,11.8c0,0-176.4,18.5-177.6,19.7c-1.1,1.1,4.7,1.5,5.3,1.6c0.6,0,1.3,0,1.9,0
				C882.7,427.6,1052.9,425.5,1222.9,427z"/>
			<path id="Cloud2" class="st4" d="M2001.3,337.8c-0.1-0.3,2.3-0.7,6.6-1.2l0,0l0.2,0l1.2-0.1l97-10.2
				c-0.2-42.2,44.7-49.5,59.9-23.2c11.2-57.7,106.9-73.1,123.4,3.5c28.7-24.3,48.3,17.9,49.4,18.4c4.5,2.1,104,11.3,105.9,13.2
				C2448.3,341.6,2002,339.3,2001.3,337.8z"/>
			<path id="Cloud1" class="st4" d="M0,500.8c45.8-10.6,98.6,9.9,112.7,75.4c15.8-22.6,75.6-19.7,79.9,28.8
				c29.2,4.6,149.6,16,152.1,18.5c2.6,2.6-173.4,2.9-344.7,2.3V500.8z"/>
		</g>
		<g>
			<g id="Bird">
				<path class="st10" d="M1545.7,182.1c-3.7,2.5-7.3,4.4-7,4.3c0.8-0.2,21,3.3,18,9.7c-3,6.4-23.7-7-23.7-7c1-3,2.8-7.4,5.2-11.2
					C1546.3,165.3,1563.2,170.3,1545.7,182.1z"/>
				<path class="st11" d="M1295.9,187.7c-13.3,3.4-1.5,23.2-1.5,23.2c-26.2-1.9-30.1,29.6,15.3,20.2c10.4-2.1,19.4-5.4,19.9-6.5
					C1331,221.8,1309.2,184.3,1295.9,187.7z"/>
				<path class="st12" d="M1275.1,223.5c1.2,6.6,11.5,12.3,34.6,7.6c10.4-2.1,19.4-5.4,19.9-6.5c0.6-1.2-3.5-9.5-9.4-18
					C1320.5,231.2,1292.4,231.9,1275.1,223.5z"/>
				<path class="st13" d="M1460.9,130.6c-55,15.2-39.9,68.7-84.6,81.8c-44.7,13.1-56.3,1.8-54.8,10.7c1.5,8.9,36.9,84.7,129.7,76.3
					c77.5-7,103.7-96.6,78.6-143.6C1518.1,133.8,1495.1,121.2,1460.9,130.6z"/>
				<path class="st14" d="M1393.9,203.2c-4.7,3.9-10.3,7.1-17.5,9.2c-44.7,13.1-56.3,1.8-54.8,10.7c0.4,2.1,2.6,7.9,7.1,15.5
					c92.1,24.8,126.9,0.3,126.9,0.3l-14.4-24.1L1393.9,203.2z"/>
				<path class="st7" d="M1424.8,299.5c8.2,0.7,17.1,0.7,26.5-0.1c54.5-4.9,83.6-50.7,87.4-93.7
					C1499.8,215.8,1442.9,243.1,1424.8,299.5z"/>
				<path class="st4" d="M1508.7,234.6c0.8-1.4,7-8,9.2-6c2.2,2-8.8,13.8-11.2,13.1C1504.3,241,1508.7,234.6,1508.7,234.6z"/>
				<path class="st4" d="M1510.4,248.5c0.8-1.4,7-8,9.2-6c2.2,2-8.8,13.8-11.2,13.1C1506,254.9,1510.4,248.5,1510.4,248.5z"/>
				<path class="st4" d="M1484.5,245.9c0.8-1.4,7-8,9.2-6c2.2,2-8.8,13.8-11.2,13.1C1480.1,252.4,1484.5,245.9,1484.5,245.9z"/>
				<path class="st4" d="M1491.1,255.8c0.8-1.4,7-8,9.2-6c2.2,2-8.8,13.8-11.2,13.1C1486.7,262.2,1491.1,255.8,1491.1,255.8z"/>
				<path class="st4" d="M1495.2,269.7c0.8-1.4,7-8,9.2-6c2.2,2-8.8,13.8-11.2,13.1C1490.8,276.2,1495.2,269.7,1495.2,269.7z"/>
				<path class="st4" d="M1457.7,261.7c0.8-1.4,7-8,9.2-6c2.2,2-8.8,13.8-11.2,13.1C1453.3,268.1,1457.7,261.7,1457.7,261.7z"/>
				<path class="st4" d="M1470.8,267c0.8-1.4,7-8,9.2-6c2.2,2-8.8,13.8-11.2,13.1C1466.4,273.5,1470.8,267,1470.8,267z"/>
				<path class="st4" d="M1476.7,278.5c0.8-1.4,7-8,9.2-6c2.2,2-8.8,13.8-11.2,13.1C1472.3,285,1476.7,278.5,1476.7,278.5z"/>
				<path class="st4" d="M1452.6,285.5c0.8-1.4,7-8,9.2-6c2.2,2-8.8,13.8-11.2,13.1C1448.3,291.9,1452.6,285.5,1452.6,285.5z"/>
				<path class="st4" d="M1476.3,141.2c-1.9,0.4-4.2,2.5-6.1,5.5l-1.6,0.2c-0.5,0.6-1,1.1-1.4,1.7c-3.9,5-5.2,11.3-4.6,17.4
					c3.5,35.5,50.9,33.2,68.1-0.2c-0.2-2.6-2-4.8-5.9-6.3L1476.3,141.2z"/>
				<path class="st10" d="M1479.1,123.1c-29.3-0.8-55.5,25.8-52.6,27.5c2.9,1.7,38.1-11.8,59.2,9.9c21.1,21.7,46.6,6.5,48,5.2
					c1.4-1.3,2.7-3,2.7-3C1526.6,140.8,1508.4,123.9,1479.1,123.1z"/>
				<path class="st15" d="M1506.1,117.8c-1.2,2.6-5.9,4.8-8.4,5.8c-5.5,2.3-11.7,3.7-17.5,4.7c-6.7,1.1-27.6,3.3-33-1.1
					c-0.7-0.6-1.8-1.6-1.5-2.7c1.1-3.1,7.2-6.3,9.9-7.5c6.5-3,14-5,21.1-6.2c6.6-1.1,26.3-3.1,29.4,5.3
					C1506.4,116.7,1506.3,117.3,1506.1,117.8L1506.1,117.8z M1513.7,113.3c-4.9-13.4-27.1-12.3-38.2-10.5c-7.8,1.3-16,3.5-23.2,6.8
					c-5.2,2.4-12.2,6.6-14.2,12.3c-1.6,4.6,0.3,8.6,4,11.6c7.7,6.4,30,4.4,39.5,2.8c6.4-1.1,13.2-2.7,19.3-5.2
					c4.6-1.9,10.3-5.1,12.6-9.8C1514.6,118.8,1514.7,116,1513.7,113.3L1513.7,113.3z"/>
				<g>
					<path class="st11" d="M1362,136.7c-25.4-35.2-20.8,13.1-13.7,23.8c7.1,10.7,11.2,14.1,11.2,14.1s-15.8,0.5-25-9.3
						c-9.2-9.9-6.3,12.2-2.3,21.3c3.9,9.1,12,13.7,12.3,14.9c0.3,1.2-11.7-0.4-17.6-5.8c-5.9-5.4-2.7,22.1,29,42.5
						c77.9,50.2,181.9-42.7,76.3-64.5C1410.6,169.2,1382.5,165.1,1362,136.7z"/>
					<path class="st12" d="M1328.3,209.1c4.4,8.5,12.9,19.6,27.7,29.1c61.3,39.5,138.7-9.6,117.5-42.9
						C1462.7,255.6,1360,252.4,1328.3,209.1z"/>
					<path class="st4" d="M1436.8,190.3c0.8,0.4,1.2,1.3,0.8,2.1c-0.4,0.8-1.3,1.2-2.1,0.8c-0.1-0.1-44.3-20.8-50.9-15.3
						c-0.9,0.8-0.5,2,0.6,3.3c3.7,4.4,13.7,9.6,18.5,12.1c2.1,1.1,3.4,1.8,3.5,2.8c0.1,1-0.4,1.6-1.5,1.7c-0.2,0-0.8,0-1.7-0.1
						c-4-0.3-14.9-1.3-19.5,0.6c-1,0.4-1.5,1-1.2,1.8c1.9,4.8,14.2,9.1,21.1,11.5c3.8,1.3,6.4,2.3,5.9,4c-0.4,1.5-2,1.5-4.4,1.4
						c-2-0.1-4.7-0.1-7.2,0.2c-4.1,0.6-6.3,1.6-7.1,2.7c-0.3,0.4-0.3,0.9,0,1.3c0.4,0.8,1.3,1.7,2.6,2.5c4.9,3.3,14.5,6.1,24.5,5.4
						c0.9-0.1,1.6,0.6,1.7,1.5c0.1,0.9-0.6,1.6-1.5,1.7c-10.7,0.8-21.1-2.2-26.5-5.9c-1.7-1.2-3-2.5-3.6-3.7
						c-0.8-1.6-0.8-3.2,0.3-4.7c1.3-1.8,4.2-3.2,9.2-4c0.9-0.1,1.7-0.2,2.6-0.3c-7.5-2.7-18.3-7-20.5-12.5c-1.2-3,0.2-4.8,3-6
						c3.6-1.5,10-1.5,15-1.2c-5.3-2.8-12.3-7-15.5-10.8c-2.4-2.8-2.9-5.6-0.2-7.8C1390.7,168.6,1436.7,190.2,1436.8,190.3z"/>
				</g>
				<path class="st10" d="M1490.8,174.8c-1.5-1.9-7.5-6.9-11.2,0.2c-0.5,0.9-1.1,1-1.4,0.5c-0.4-0.6-0.1-1.7,0.1-2.4
					c2.2-6.3,9.4-5.5,12.4-2.3C1492.9,173.3,1492.3,176.7,1490.8,174.8z"/>
			</g>
			<path id="BirdLine" class="st4" d="M1278.1,175.5c1.2,0.7,1.6,2.2,0.9,3.4c-0.7,1.2-2.2,1.6-3.4,0.9
				c-16.6-9.5-61.1-23.3-101.6-25.7c-27.1-1.6-52.2,1.9-65.4,15.3c-4.3,4.3-7.1,8.6-8.9,12.8c16.7-0.1,30.9,2.7,41.9,7.2
				c8.4,3.4,15.1,7.8,19.6,12.5c4.8,5,7.4,10.4,7.4,15.6c0.1,4.3-1.6,8.4-5.1,12c-8.8,8.8-27,7.3-42.6-0.5
				c-5.4-2.7-10.5-6.1-14.8-10.1c-4.4-4.1-8-8.7-10.4-13.8l0,0l0,0c-2.6-5.5-3.6-11.4-2.7-17.6c-12.3,0.7-25.9,3.1-40.5,7.6
				c-20.2,6.3-36.9,13.3-50.5,20.1c-18,9.1-30.6,18-39.1,25c-1.1,0.9-2.6,0.7-3.5-0.3s-0.7-2.6,0.3-3.5c8.7-7.2,21.6-16.3,40-25.6
				c13.8-7,30.8-14,51.2-20.4c15.6-4.9,30.1-7.3,43.2-7.9c1.8-5.4,5.3-10.9,10.8-16.5c14.4-14.5,40.9-18.4,69.2-16.7
				C1215.5,151.6,1261,165.8,1278.1,175.5L1278.1,175.5z M1098.2,187.2c-1.1,5.5-0.2,10.8,2,15.7l0,0c2.1,4.5,5.3,8.6,9.3,12.2
				c4,3.7,8.7,6.9,13.7,9.3c13.9,7,29.6,8.6,36.9,1.4c2.5-2.5,3.7-5.4,3.7-8.4c0-3.9-2.1-8.1-6-12.1c-4.1-4.2-10.2-8.2-18-11.4
				C1128.9,189.6,1114.9,186.9,1098.2,187.2z"/>
		</g>
		<g id="Tree1">
			<path class="st5" d="M0,0h785.7C750.8,133,574.9,133.4,505,30c76,221.1-195.4,276.3-335,105c0,0,20.3,215.4-170,221.1V0z"/>
			<path class="st6" d="M0,0h427.6c-12.3,26.9-31.4,47.5-54.3,62.1c16.6,4.1,41.9,14.6,49.2,34c9.9,26.3,17.6,44.6,17.6,44.6
				s-17.6,1.4-47.1-18.4c-15-10-23.2-25.9-27.7-39.2c-2.9,4.6-7.4,11.5-15.1,21.7c-15,20-47,32.2-47,32.2s5-37.2,33.7-57.8
				c-65.7,21.9-147.5,6.8-201.5-40.6c-3.4,18.4-8.5,35.5-14.8,51.3c18.4,1.1,48.8,7.2,69.7,35c4.3,5.8,58.5,58.4,58.8,57.9
				c1.3-2.2-84.5,9-125.1-47.4c-0.7,5.5-1.9,12.2-3.7,19.5c-5,20-30,40-30,40s-6-26.6,0.1-51.4c-25.1,32.9-57.1,54.9-90.1,64V0z"/>
		</g>
		<g id="Leaves">
			<path class="st5" d="M1126.2,0h7.1C543.4,575.6,133.3,286.7,0,157.7v-7C128.2,276.7,536.1,573,1126.2,0L1126.2,0z M1952.2,0h5.3
				c43,120,172.6,339.3,542.5,319.9v5C2125.4,344.5,1995.1,121,1952.2,0z"/>
			<g>
				<path class="st5" d="M772.6,262.7c0,0,8.6-13.5,50.9-5.6c42.3,7.9,103.7,52.5,103.7,52.5C898.2,341.5,789.4,306.9,772.6,262.7z"
					/>
				<path class="st5" d="M293.4,321.3c-67.2-25.3-92.3,49.4-128.4,98.7c0,0,55.6-10.7,95.9-41.5
					C301.1,347.7,293.4,321.3,293.4,321.3z"/>
				<path class="st5" d="M959.2,150c0,0-24.1-32.5-24.1-62.8c0-30.3,18-52.2,18-52.2s23.5,29.5,22.2,57.9
					C974.1,121.3,959.2,150,959.2,150z"/>
				<path class="st5" d="M234.6,303.6c0,0-13.2,1.8-32-35c-18.8-36.8-9.6-85.5-9.6-85.5C239,215.9,249.1,249.7,234.6,303.6z"/>
				<path class="st5" d="M452.2,342.9c0,2.3,2.8-12.9,17.8-32.9c6.6-8.8,20.5-19.2,35.2-30.3l0,0c0.8-0.5,25.3-17.3,31.8-22.2
					c6.6-4.9,15.4-13.3,15.4-13.3s6.2,13.9-8,47.3c-1.3,2.8-2.7,5.6-4.3,8.5C517.1,341.4,452.3,343.2,452.2,342.9z"/>
			</g>
			<g>
				<path class="st5" d="M2125,228.4c0,0,1.4,14.2-32.7,31.8c-34.1,17.6-101.6,19.8-101.6,19.8C1993.7,241.7,2089,206.5,2125,228.4z
					"/>
				<path class="st5" d="M2282.7,303.8c0,0,40.3,4.3,66.4-10.9c26.1-15.3,35.9-41.9,35.9-41.9s-37.3-5.4-61.2,10.1
					C2300,276.4,2282.7,303.8,2282.7,303.8z"/>
				<path class="st5" d="M2012.4,118.1c0,0-4-40.3,11.5-66.3c15.5-26,42.2-35.6,42.2-35.6s5,37.4-10.6,61.1
					C2039.9,101.1,2012.4,118.1,2012.4,118.1z"/>
				<path class="st5" d="M2375,320.9c0-1.6,1.9,9,12.4,23c4.6,6.2,14.3,13.5,24.6,21.2l0,0c0.5,0.4,17.7,12.1,22.2,15.5
					c4.6,3.5,10.8,9.3,10.8,9.3s4.3-9.7-5.6-33.1c-0.9-2-1.9-3.9-3-5.9C2420.4,322,2375,320.8,2375,320.9z"/>
			</g>
		</g>
		<g>
			<path id="BalloonLove" class="st11" d="M2375.9,852.3c3.4-2.7,24.4-14.4,38.4-24.8c37.9-28.2,11.9-62.4-25.6-24.5h0
				C2384.1,757.2,2312.8,746.9,2375.9,852.3z"/>
			<g id="Balloon">
				<g>
					<path class="st16" d="M2267.3,641.9c-0.3-0.8,0.1-1.7,0.9-2c0.8-0.3,1.7,0.1,2,0.9c2.1,5.2,6.6,75.2,8.6,138.2
						c0.4,11.7,0.7,23.1,0.8,33.8c0.3,3.3,0.7,6.6,1,9.8c0-55.9,9.3-126.3,11.4-141.8c0.2-1.5,0.3-2.5,0.4-2.9
						c0.1-0.8,0.9-1.5,1.7-1.4c0.8,0.1,1.5,0.9,1.4,1.7c0,0.3-0.2,1.3-0.4,3c-2,15-10.8,81.7-11.3,136.5l0.4-1.9
						c2.4-38.3,10.8-90.3,18-128.1c2.7-14.3,5.3-26.6,7.3-35.2c1.5-6.4,2.9-11,4-13.3c0-0.1,0-0.2,0-0.3c0.1-0.7,0.6-1.3,1.3-1.4
						l0.1,0v0c0.1,0,0.2,0,0.3,0l0,0c0.8,0.1,1.5,0.8,1.4,1.7c-0.1,0.8-0.7,1.4-1.4,1.4c-0.2,0.1-0.8,4.7-2.6,12.6
						c-2,8.7-4.6,20.9-7.3,35.1c-5.7,29.6-12.1,68-15.7,101.5c12.6-53.7,44-122,44.1-122.2c0.4-0.8,1.3-1.1,2-0.8
						c0.8,0.4,1.1,1.3,0.8,2c-0.1,0.2-36.4,79.1-46.5,133.6c-0.9,4.8-1.8,9.4-2.8,13.9c-0.3,5.4-0.5,10.4-0.6,15.1h-9.8
						c0-3.2,0-6.5-0.1-9.9c-7.3-23.8-15-49.4-22.1-73.4c-12-40.3-22.6-75.9-28.1-90.2c-0.3-0.8,0.1-1.7,0.9-2c0.8-0.3,1.7,0.1,2,0.9
						c5.5,14.3,16.1,50,28.1,90.4c6,20.2,12.4,41.6,18.7,62.1c-7.5-72.3-21.1-153.8-21.1-154.1c-0.1-0.8,0.4-1.6,1.3-1.8
						c0.8-0.1,1.6,0.4,1.8,1.3c0,0.2,10,59.9,17.6,122.4C2273.6,715.1,2269.2,646.9,2267.3,641.9z"/>
					<g>
						<path class="st15" d="M2319.3,367.4c-15.9,4.3-27.1,21.7-21.3,49.8l0,0.1l0.1,0.6l0.2,0.8c9.3,42.5,39.8,67.9,39.8,67.9
							s39.3-4.5,70.3-34.8c21.4-20.8,21.8-42,10.6-54.5c-11-12.4-33.5-14.5-47.9-6.3v0l0,0l-0.2,0.1c-0.7,0.4-2.8,1.4-4.5,0.9
							c-1.6-0.5-2.7-2.2-3.2-3.1c-0.1-0.2-0.2-0.4-0.3-0.5l0,0l0,0C2355,373.4,2335.2,363,2319.3,367.4z"/>
						<path class="st17" d="M2317.5,462.6c10.4,15.3,20.6,23.8,20.6,23.8s39.3-4.5,70.3-34.8c21.4-20.8,21.8-42,10.6-54.5
							c0,0-1.8,53.1-63.1,68.6C2342.4,469,2329.4,467.4,2317.5,462.6z"/>
						<path class="st18" d="M2306.8,425.8c0,0-6.9-18.1,0.4-36.4c7.2-18.3,19-11.8,17.4-4.9c-1.6,6.9-11.8,14.4-13.1,33.1
							C2310.1,436.3,2306.8,425.8,2306.8,425.8z"/>
						<path class="st18" d="M2379.4,397.7c7.7-4.2,21.5-4.1,27.9-0.2c8,4.9,3.9,10.8-5,8.7c-0.4-0.1-0.7-0.2-1.1-0.3l0,0v0
							c-11.2-2.8-22.1-0.8-26.6-2C2369.9,402.5,2378.5,397.9,2379.4,397.7z"/>
					</g>
					<g>
						<path class="st16" d="M2373.8,437.1c-16.3,1.8-30.1,17.3-28.7,45.9l0,0.1l0,0.6l0,0.8c2.6,43.4,29,73.2,29,73.2
							s39.5,1.6,74.8-23.7c24.3-17.2,27.9-38.2,18.8-52.3c-9-13.9-30.8-19.5-46.4-13.5l0,0l0,0l-0.3,0.1c-0.8,0.3-3,1-4.6,0.2
							c-1.5-0.7-2.3-2.6-2.7-3.6c-0.1-0.2-0.1-0.4-0.2-0.6l0,0l0,0C2408.1,448.5,2390.1,435.2,2373.8,437.1z"/>
						<path class="st19" d="M2357.4,531c7.9,16.7,16.7,26.7,16.7,26.7s39.5,1.6,74.8-23.7c24.3-17.2,27.9-38.2,18.8-52.3
							c0,0-9.9,52.2-72.8,58.1C2381,541.1,2368.5,537.4,2357.4,531z"/>
						<path class="st20" d="M2352.5,492.9c0,0-4-18.9,5.9-35.9c9.9-16.9,20.6-8.7,17.9-2.2c-2.7,6.5-13.9,12.5-18,30.7
							C2354.1,503.8,2352.5,492.9,2352.5,492.9z"/>
						<path class="st21" d="M2428.5,476.2c8.3-2.9,21.9-0.7,27.6,4.1c7.2,6,2.2,11.3-6.2,7.9c-0.3-0.2-0.7-0.3-1-0.4l0,0v0
							c-10.7-4.5-21.7-4.1-26-6.1C2418.4,479.6,2427.6,476.3,2428.5,476.2z"/>
					</g>
					<g>
						<path class="st16" d="M2190,402.8c-14,8.7-19.8,28.5-6.2,53.8l0,0.1l0.3,0.5l0.4,0.7c21,38.1,57.6,53.7,57.6,53.7
							s36.4-15.5,57.4-53.5c14.6-26,8.8-46.5-5.4-55.3c-14.1-8.7-36.2-4.3-47.7,7.7l0,0l0,0l-0.2,0.2c-0.6,0.6-2.3,2.1-4.1,2.1
							c-1.6,0-3.2-1.3-4-2.1c-0.1-0.1-0.3-0.3-0.4-0.4l0,0h0C2226,398.4,2204.1,394.1,2190,402.8z"/>
						<path class="st19" d="M2215.5,494.6c14.3,11.7,26.5,16.9,26.5,16.9s36.4-15.5,57.4-53.5c14.6-26,8.8-46.5-5.4-55.3
							c0,0,13.4,51.4-40.9,83.7C2241.2,493.7,2228.3,495.7,2215.5,494.6z"/>
						<path class="st20" d="M2194.8,462.4c0,0-11.7-15.4-10-35c1.7-19.6,14.9-16.7,15.3-9.7c0.4,7-7.2,17.2-3.1,35.5
							C2200.9,471.5,2194.8,462.4,2194.8,462.4z"/>
						<path class="st21" d="M2256.3,414.7c6.2-6.2,19.5-10.1,26.7-8.2c9.1,2.4,6.9,9.2-2.3,9.8c-0.4,0-0.7,0-1.1,0h0v0
							c-11.6,0.5-21.4,5.6-26.1,5.6C2248.6,422.1,2255.5,415.1,2256.3,414.7z"/>
					</g>
					<g>
						<path class="st13" d="M2094.2,407.2c-10.5,12.6-9.8,33.3,11,53l0,0l0.4,0.4l0.6,0.5c31.9,29.6,71.5,32.9,71.5,32.9
							s29.7-26.2,37.7-68.8c5.7-29.3-6.2-46.9-22.5-50.8c-16.1-3.9-35.7,7.2-42.9,22.3l0,0v0l-0.1,0.3c-0.3,0.7-1.5,2.7-3.2,3.3
							c-1.6,0.5-3.5-0.3-4.4-0.7c-0.2-0.1-0.4-0.2-0.5-0.3l0,0l0,0C2127,391.7,2104.8,394.6,2094.2,407.2z"/>
						<path class="st14" d="M2147.3,486.4c17.3,6.6,30.5,7.8,30.5,7.8s29.7-26.2,37.7-68.8c5.7-29.3-6.2-46.9-22.5-50.8
							c0,0,28.8,44.6-12.5,92.3C2171.3,477.4,2159.8,483.4,2147.3,486.4z"/>
						<path class="st22" d="M2117.4,462.3c0,0-16-10.9-20.5-30c-4.5-19.1,8.9-20.5,11.5-14c2.6,6.6-1.4,18.6,8.2,34.7
							C2126.1,469,2117.4,462.3,2117.4,462.3z"/>
						<path class="st22" d="M2160.9,397.7c4-7.8,15.3-15.7,22.8-16.1c9.4-0.6,9.4,6.6,0.9,10c-0.3,0.1-0.7,0.2-1,0.4l0,0v0
							c-10.8,4.1-18.6,12-23,13.5C2155.9,407.1,2160.3,398.4,2160.9,397.7z"/>
					</g>
					<g>
						<path class="st15" d="M2128.8,480.3c-11.7,11.5-13.1,32.1,5.7,53.8l0,0.1l0.4,0.4l0.5,0.6c28.8,32.6,67.9,39.8,67.9,39.8
							s32.1-23.1,44.3-64.7c8.5-28.6-1.5-47.3-17.4-52.8c-15.6-5.4-36.3,3.7-44.9,17.9v0v0l-0.1,0.2c-0.4,0.7-1.7,2.6-3.5,3
							c-1.6,0.4-3.4-0.6-4.3-1.2c-0.2-0.1-0.3-0.2-0.5-0.3l0,0h0C2162.9,468.1,2140.6,468.8,2128.8,480.3z"/>
						<path class="st17" d="M2173.8,564.3c16.6,8.3,29.6,10.7,29.6,10.7s32.1-23.1,44.3-64.7c8.5-28.6-1.5-47.3-17.4-52.8
							c0,0,24.3,47.2-21.6,90.6C2198.6,557.8,2186.5,562.6,2173.8,564.3z"/>
						<path class="st18" d="M2146.4,537.4c0,0-14.8-12.4-17.4-31.9c-2.6-19.5,10.9-19.5,12.8-12.8c1.9,6.8-3.2,18.4,4.7,35.3
							C2154.4,545,2146.4,537.4,2146.4,537.4z"/>
						<path class="st18" d="M2196.1,477.4c4.7-7.4,16.8-14.1,24.3-13.8c9.4,0.3,8.7,7.5-0.1,10.1c-0.4,0.1-0.7,0.2-1.1,0.3l0,0l0,0
							c-11.2,3-19.6,10.1-24.2,11.2C2190.1,486.3,2195.4,478.1,2196.1,477.4z"/>
					</g>
					<g>
						<path class="st23" d="M2288.7,413.2c-15.9,4-27.4,21.2-22.2,49.4l0,0.1l0.1,0.6l0.2,0.8c8.5,42.7,38.7,68.6,38.7,68.6
							s39.4-3.8,70.9-33.7c21.7-20.4,22.4-41.6,11.5-54.3c-10.8-12.6-33.2-15.1-47.8-7.1l0,0l0,0l-0.2,0.1c-0.7,0.4-2.8,1.4-4.6,0.8
							c-1.6-0.5-2.7-2.2-3.2-3.2c-0.1-0.2-0.2-0.4-0.3-0.5l0,0l0,0C2324.4,419.9,2304.7,409.1,2288.7,413.2z"/>
						<path class="st24" d="M2285.3,508.4c10.1,15.5,20.2,24.1,20.2,24.1s39.4-3.8,70.9-33.7c21.7-20.4,22.4-41.6,11.5-54.3
							c0,0-2.7,53-64.2,67.5C2310.1,515.3,2297.2,513.4,2285.3,508.4z"/>
						<path class="st25" d="M2275.3,471.4c0,0-6.6-18.2,1-36.4c7.5-18.1,19.2-11.4,17.5-4.6c-1.7,6.8-12,14.2-13.7,32.9
							C2278.4,482,2275.3,471.4,2275.3,471.4z"/>
						<path class="st25" d="M2348.3,444.5c7.8-4,21.6-3.7,27.9,0.3c7.9,5,3.8,10.9-5.1,8.6c-0.4-0.1-0.7-0.2-1.1-0.3l0,0l0,0
							c-11.2-3-22.1-1.1-26.6-2.5C2338.7,449.2,2347.4,444.7,2348.3,444.5z"/>
					</g>
					<g>
						<path class="st13" d="M2332.8,512.9c-16.4,1.1-30.8,15.8-30.8,44.5v0.1l0,0.6l0,0.8c0.6,43.5,25.5,74.5,25.5,74.5
							s39.4,3.4,75.8-20.1c25.1-16.1,29.7-36.8,21.3-51.3c-8.3-14.3-29.9-20.9-45.7-15.7v0l0,0l-0.3,0.1c-0.8,0.2-3,0.8-4.6,0
							c-1.4-0.8-2.2-2.7-2.5-3.7c-0.1-0.2-0.1-0.4-0.2-0.6l0,0l0,0C2366.6,526,2349.3,511.8,2332.8,512.9z"/>
						<path class="st14" d="M2312.1,605.9c7.1,17.1,15.4,27.4,15.4,27.4s39.4,3.4,75.8-20.1c25.1-16.1,29.7-36.8,21.3-51.3
							c0,0-12.4,51.6-75.5,54.6C2335.2,617.2,2322.8,612.9,2312.1,605.9z"/>
						<path class="st22" d="M2308.9,567.7c0,0-3.1-19.1,7.6-35.6c10.7-16.5,21-7.7,18-1.3c-3,6.4-14.4,11.8-19.5,29.8
							C2310.1,578.6,2308.9,567.7,2308.9,567.7z"/>
						<path class="st22" d="M2385.7,554.6c8.4-2.5,21.9,0.3,27.4,5.4c6.9,6.4,1.7,11.4-6.6,7.6c-0.3-0.2-0.7-0.3-1-0.5l0,0l0,0
							c-10.4-5-21.5-5.1-25.7-7.3C2375.4,557.5,2384.7,554.6,2385.7,554.6z"/>
					</g>
					<g>
						<path class="st26" d="M2241.2,482.4c-14.9,7-23,26-12.5,52.7l0,0.1l0.2,0.5l0.3,0.7c16.4,40.3,50.9,60.1,50.9,60.1
							s37.9-11.2,63.3-46.4c17.5-24.1,14.2-45.1,1.1-55.5c-13-10.3-35.5-8.6-48.3,2l0,0l0,0l-0.2,0.2c-0.6,0.5-2.5,1.9-4.3,1.6
							c-1.6-0.2-3-1.7-3.7-2.5c-0.1-0.2-0.2-0.3-0.4-0.5l0,0h0C2277.5,482.2,2256.2,475.4,2241.2,482.4z"/>
						<path class="st27" d="M2255.8,576.6c12.9,13.3,24.4,19.9,24.4,19.9s37.9-11.2,63.3-46.4c17.5-24.1,14.2-45.1,1.1-55.5
							c0,0,7.3,52.6-50.4,78.4C2281.4,578.6,2268.4,579.2,2255.8,576.6z"/>
						<path class="st28" d="M2239,542.1c0,0-9.9-16.7-5.9-35.9c4-19.2,16.7-14.8,16.3-7.8c-0.4,7-9.1,16.3-7.3,34.9
							C2244,551.9,2239,542.1,2239,542.1z"/>
						<path class="st28" d="M2305.7,502c6.9-5.4,20.5-7.7,27.5-5c8.7,3.4,5.7,10-3.4,9.5c-0.4,0-0.7-0.1-1.1-0.1h0l0,0
							c-11.5-0.9-21.9,3-26.6,2.6C2297.1,508.4,2304.8,502.3,2305.7,502z"/>
					</g>
					<g>
						<path class="st11" d="M2146.2,577.9c-10.4,12.7-9.5,33.4,11.5,52.9l0,0l0.4,0.4l0.6,0.5c32.2,29.3,71.8,32.2,71.8,32.2
							s29.4-26.5,37.1-69.2c5.4-29.3-6.6-46.8-23-50.6c-16.1-3.7-35.7,7.6-42.7,22.7v0l0,0l-0.1,0.3c-0.3,0.7-1.4,2.8-3.2,3.4
							c-1.6,0.5-3.5-0.2-4.4-0.7c-0.2-0.1-0.4-0.2-0.5-0.3l0,0l0,0C2178.8,562.1,2156.6,565.2,2146.2,577.9z"/>
						<path class="st12" d="M2200,656.6c17.4,6.5,30.6,7.5,30.6,7.5s29.4-26.5,37.1-69.2c5.4-29.3-6.6-46.8-23-50.6
							c0,0,29.3,44.3-11.6,92.4C2223.9,647.4,2212.4,653.5,2200,656.6z"/>
						<path class="st29" d="M2169.9,632.8c0,0-16.1-10.8-20.8-29.8c-4.7-19.1,8.7-20.6,11.3-14.1c2.6,6.5-1.2,18.6,8.5,34.6
							C2178.6,639.4,2169.9,632.8,2169.9,632.8z"/>
						<path class="st29" d="M2212.7,567.7c3.9-7.9,15.2-15.8,22.7-16.4c9.4-0.7,9.5,6.5,1,10c-0.3,0.1-0.7,0.3-1,0.4l0,0v0
							c-10.8,4.2-18.4,12.2-22.9,13.8C2207.8,577.2,2212.1,568.4,2212.7,567.7z"/>
					</g>
					<g>
						<path class="st11" d="M2312.3,560.8c-15.9,4-27.4,21.2-22.2,49.4l0,0.1l0.1,0.6l0.1,0.8c8.5,42.7,38.7,68.6,38.7,68.6
							s39.4-3.8,70.9-33.7c21.7-20.4,22.4-41.6,11.5-54.3c-10.8-12.6-33.2-15.1-47.8-7.1v0l0,0l-0.2,0.1c-0.7,0.4-2.8,1.4-4.6,0.8
							c-1.6-0.5-2.7-2.2-3.2-3.2c-0.1-0.2-0.2-0.4-0.3-0.5l0,0l0,0C2347.9,567.4,2328.2,556.7,2312.3,560.8z"/>
						<path class="st12" d="M2308.9,656c10.1,15.5,20.2,24.1,20.2,24.1s39.4-3.8,70.9-33.7c21.7-20.4,22.4-41.6,11.5-54.3
							c0,0-2.7,53-64.2,67.5C2333.6,662.9,2320.7,660.9,2308.9,656z"/>
						<path class="st29" d="M2298.8,619c0,0-6.6-18.2,1-36.4c7.5-18.1,19.2-11.4,17.5-4.6c-1.8,6.8-12,14.3-13.7,32.9
							C2301.9,629.6,2298.8,619,2298.8,619z"/>
						<path class="st29" d="M2371.9,592.1c7.8-4,21.6-3.7,27.9,0.3c7.9,5,3.8,10.9-5.1,8.7c-0.4-0.1-0.7-0.2-1.1-0.3l0,0l0,0
							c-11.2-3-22.1-1.1-26.6-2.5C2362.3,596.8,2370.9,592.3,2371.9,592.1z"/>
					</g>
					<g>
						<path class="st16" d="M2228.9,591.3c-12.7,10.4-16,30.8,0.7,54.1l0,0.1l0.3,0.5l0.5,0.6c25.7,35.1,64,45.9,64,45.9
							s34.1-20.1,50.1-60.4c11.1-27.7,2.8-47.2-12.4-54.2c-15.1-6.9-36.5,0.3-46.4,13.7v0l0,0l-0.2,0.2c-0.5,0.6-2,2.4-3.8,2.7
							c-1.6,0.2-3.4-0.9-4.2-1.6c-0.2-0.1-0.3-0.3-0.5-0.4l0,0v0C2264,582.4,2241.6,580.9,2228.9,591.3z"/>
						<path class="st19" d="M2265.9,679.1c15.7,9.8,28.5,13.4,28.5,13.4s34.1-20.1,50.1-60.4c11.1-27.7,2.8-47.2-12.4-54.2
							c0,0,19.8,49.2-29.8,88.2C2291.2,674.9,2278.7,678.6,2265.9,679.1z"/>
						<path class="st21" d="M2241.1,649.8c0,0-13.6-13.8-14.4-33.4c-0.8-19.6,12.6-18.5,13.9-11.5c1.3,6.9-4.9,18,1.4,35.6
							C2248.4,658.1,2241.1,649.8,2241.1,649.8z"/>
						<path class="st21" d="M2296.1,594.7c5.4-6.9,18-12.5,25.5-11.5c9.3,1.2,8,8.3-1,10c-0.4,0.1-0.7,0.1-1.1,0.2h0v0
							c-11.4,2-20.5,8.3-25.1,8.9C2289.4,603,2295.3,595.2,2296.1,594.7z"/>
					</g>
				</g>
				<g>
					<path class="st16" d="M2295.3,829.8c0.9,1.2,0.7,5-0.3,6.2c-0.3,0.3-3.2,0.5-7,0.6l55.7,54.3l-2.8,2.9l-58.5-57.1
						c-0.9,0-1.7,0-2.6,0l-63.5,55.8l-2.6-3l60.2-52.9c-3.6-0.1-6.2-0.3-6.4-0.6c-1-1.2-1.1-5-0.3-6.2
						C2268,828.6,2294.5,828.6,2295.3,829.8z"/>
					<path class="st30" d="M2216.2,901c0,0,9.5,75,14.3,80c6.1,6.4,92.8,6.4,98.9,0c4.8-5,14.3-80,14.3-80H2216.2z"/>
					<path class="st31" d="M2216.2,901c0,0,0.6,4.4,1.5,11.2c46.6-0.1,93.8,16,120.5,27.6c3-19.6,5.5-38.8,5.5-38.8H2216.2z"/>
					<path class="st32" d="M2352.7,888.5c3.7,7.4,2,17.3-4.5,18c-15.1,1.6-120,1.6-136.2,0c-6.7-0.7-8.6-10.4-4.8-18
						C2212.2,878.5,2347.7,878.5,2352.7,888.5z"/>
					<path class="st33" d="M2270,889.5c1.4,6.9-55.1,10.1-56.8,5.1C2209.6,883.8,2269,884.5,2270,889.5z"/>
					<path class="st34" d="M2296.7,912.2c2.9,1.4-62.9,42.2-66.1,40.8C2221.5,949,2295.8,911.8,2296.7,912.2z"/>
					<path class="st34" d="M2330,921c2.2,3.2-74.5,59.9-77.2,57.5C2247.1,973.4,2329.1,919.7,2330,921z"/>
					<path class="st34" d="M2233.5,923c1.5-2,62.8,54.5,59.6,56.2C2282.4,985.2,2232,925,2233.5,923z"/>
					<path class="st34" d="M2266.1,916.2c8.7,3.9,62.3,47.9,58.8,49.8c-6.9,3.8-50.3-39.3-59.3-48.6
						C2264.6,916.3,2263.3,914.9,2266.1,916.2z"/>
				</g>
			</g>
		</g>
		<g id="Water">
			<rect y="1132.7" class="st35" width="2500" height="298.7"/>
			<path class="st36" d="M1249.6,1132.7h1019.2c16.9,11.8,35.9,25.9,54.8,41.7c27.3,22.8,30.8,0.7,87.1,95.9
				c3.9,6.7,41.4,18,44.4,24.7c4.3,9.8-96.7,20.1-95,30c0.6,3.8,32.4,5.4,53.6,7.6c10.6,1.1,51.1,5.6,51.4,7.4
				c0.7,5.5-31.4,7.7-31,13c2.2,29.7,0.2,55.8-4.5,78.4H1180.1C1122.2,1312.2,1153.2,1201.7,1249.6,1132.7z"/>
			<path class="st37" d="M0,1132.7h2162l-1.2,4c0,0-30.5,14-5.8,28.3c24.7,14.3-40,35-35,45c5,10-150,55-135,65c15,10-5,50-60,15
				c-55-35-45-55-125-65c-80-10-85-50-135-35c-34.2,10.3-84.6-13.9-125-10c-18.6,1.8-25.7,35.5-45,35c-158.3-4.1-115.4,23.1-135,50
				c-55.7,76.5-167.2,92.2-221.6,83.1c-30-5-23.1-67.1-83.1-117.1c-60-50-195.6,0.2-195.6,0.2s-176.1,62.6-208.3,86.3
				c-32.3,23.7-285.5-12.8-336.4-22.5c-34.7-6.6-21.1-40.2-40-45c-45.2-11.4-94.3,12.7-120,30c-9.4,6.4-6.4,30-25,40
				c-79,42.5-32.3,13.8-110-25c-5.9-3-12.8-5.8-20-8.5V1132.7z"/>
			<path class="st38" d="M0,1230v-15.3c30.8,2.9,97.3,0.8,115,5.3c17.7,4.4-25,10-35,10H0z"/>
			<path class="st39" d="M0,1132.7h2500v24.9c-213.7,14-830.9,53.5-780,73.3c60,23.4,760,74.2,610,74.2
				c-115.5,0-1646.8,41.6-2330,43v-42.3c437.9-23,1160.3-45.9,1143.6-95.1C1127,1161.8,420,1147.3,0,1142.9V1132.7z"/>
			<path class="st35" d="M1249.6,1132.7h1019.2c15.2,10.6,32,23.1,49,37c-265.1,17.9-637.8,45.7-597.8,61.3
				c60,23.4,760,74.2,610,74.2c-66.6,0-604.2,13.9-1178.4,25.8C1145.6,1251.8,1181.1,1181.7,1249.6,1132.7z"/>
			<path class="st40" d="M0,1132.7h2162l-1.2,4c0,0-30.5,14-5.8,28.3c8.3,4.8,6.5,10.4,0.6,16c-157.7,11.5-317.5,24.6-393.2,35.8
				c-45.7-14.8-56.6-39-97.3-26.8c-34.2,10.3-84.6-13.9-125-10c0,0-88.5,5.4-86.7,7.7c1.7,2.3,66.7,12.3,61.7,12.3
				c-5,0-113.5,4.5-111.7,7.3c1.7,2.7,84.9,2.3,84.9,4.9c-0.1,2.6-52,3.6-63.2,7.8c-10.9,4.9-42-5.2-53.8,13.2
				c0,0-21.2,11.8-36.2,11.8c-15,0-114.3,4.1-117.1,7c-2.9,3,137.1,3,132.1,8c-5,5-60,10-60,10s83.6,5.5,107.2,6.9
				c-4.7,5.6-53.9,7.9-59.1,12.7c-17.9,16.7-38.9,29.3-60.7,38.7c-52.2,1.1-104.9,2.2-157.9,3.3c-11.6-21.2-19.9-58.9-55.5-92.9
				c53.3-8.3,83.1-17.6,79.6-28C1127,1161.8,420,1147.3,0,1142.9V1132.7L0,1132.7z M1879.7,1254.4c11.3,9.6,22.9,21.4,45.3,35.6
				c55,35,75-5,60-15c-2.8-1.9,0.4-5,7.5-8.9C1953.2,1262.2,1914.8,1258.2,1879.7,1254.4L1879.7,1254.4z M36.2,1304
				c54.9,34,21,55.2,93.8,16c9.3-5,13.2-13.5,16-21.4C108.1,1300.4,71.4,1302.2,36.2,1304L36.2,1304z M303.6,1291.1
				c3.1,1.7,6.8,3,11.4,3.9c51,9.7,304.2,46.2,336.4,22.5c15.8-11.6,66-32.5,113.2-50.8C624.1,1275.8,460.6,1283.7,303.6,1291.1z"/>
			<path class="st38" d="M1241.7,1195c2.2,0,19.6,0.5,40.9,0c21.4-0.5,64.6,2.2,62.4,4.3c-2.2,2.2-58.1,2.2-79.7,4.3
				c-21.5,2.2-73.2-6.5-75.4-8.6C1187.9,1192.8,1241.7,1195,1241.7,1195z"/>
			<path class="st38" d="M2072.5,1219.7c2.6-0.1,23.6-0.1,49.4-1.4c25.8-1.3,78,0.3,75.5,3c-2.5,2.7-70.1,4.6-96,8
				c-25.9,3.4-88.6-5.2-91.3-7.7C2007.4,1219,2072.5,1219.7,2072.5,1219.7z"/>
			<path class="st38" d="M2241.6,1239c4-0.1,36.5-0.2,76.4-2.2c39.9-2.1,120.7,0.5,116.8,4.6c-3.9,4.1-108.4,7.2-148.5,12.4
				c-40.1,5.2-137.1-8.1-141.2-12C2141,1237.9,2241.6,1239,2241.6,1239z"/>
		</g>
		<g id="TxtGroup">
			<path id="Txt2" class="st12" d="M1516.9,555.4c1.8,0,3.6,2.7,5.4,8.1c1.8,5.4,2.7,11.1,2.7,16.8c0,12.9-2.9,27.2-8.6,42.8
				c-5.7,15.7-13,28.3-22,37.9c-8.9,9.6-18.2,14.4-27.8,14.4c-7.8,0-14.1-2.8-19-8.3c-4.9-5.5-7.3-12.7-7.3-21.6
				c0-8.3,3-20.5,9-36.4c5.5-15.2,8.3-26,8.3-32.5c0-4.3-0.8-7.6-2.5-10c-1.7-2.4-3.9-3.6-6.8-3.6c-4.5,0-8.7,2.5-12.7,7.6
				c-4,5.1-6,10.5-6,16.3c0,4.7,1.2,8.2,3.6,10.5c2.4,2.3,3.6,4,3.6,5.2c0,2-1.2,4.3-3.6,6.9c-2.4,2.6-4.6,3.9-6.4,3.9
				c-2.3,0-4.5-1.6-6.5-4.8c-2-3.2-3-6.7-3-10.6c0-10.1,3.6-19.7,10.8-28.8c7.2-9.2,15.7-13.8,25.3-13.8c7.4,0,13.3,2.8,17.8,8.3
				c4.4,5.6,6.7,13,6.7,22.3c0,4.3-0.5,9.2-1.6,14.6c-1.1,5.4-3.8,13.9-8.1,25.5c-4.3,11.6-6.4,20.3-6.4,26.3c0,3.9,1.2,7.2,3.5,9.8
				c2.3,2.6,5.2,3.8,8.7,3.8c5.3,0,10.8-3.2,16.6-9.5c5.8-6.3,10.6-14.6,14.4-24.7c3.8-10.1,5.7-19.8,5.7-29.2
				c0-8.9-2.7-18.5-8.1-28.9c-1.7-3.1-2.6-5.3-2.6-6.5c0-2.1,2.4-4.6,7.2-7.5C1512,556.8,1515.2,555.4,1516.9,555.4L1516.9,555.4z
				 M1973.7,649.5L1973.7,649.5c-7.8,8.9-12.7,12.2-16.4,12.2c-2.7,0-4.1-1.7-4.1-5c0-2.5,1.6-8,4.9-16.4c4.8-12.2,7.2-21,7.2-26.3
				c0-3.2-0.9-5.9-2.8-8c-1.9-2.1-4.2-3.2-7-3.2c-4.2,0-8.9,1.9-14.2,5.9c-5.3,3.9-12.5,10.9-21.6,21c1.3-6.6,4.1-15.5,8.4-26.8
				l-20.2,3.9c-4.6,9.9-7.9,18.9-9.9,26.8c-1,4-1.8,8.1-2.3,12.4l-0.7,0.8l0-0.1c-1,1-1.8,2-2.6,2.8l0,0l-0.1,0.1l-0.1,0.1l0,0l0,0
				l0,0l0,0l0,0l0,0l0,0l0,0l0,0c-2.9,3.1-4.9,4.8-6.6,6c-2.2,1.6-4.3,2.3-6.5,2.3c-1.2,0-2.2-0.6-3-1.7c-0.8-1.1-1.2-2.6-1.2-4.4
				c0-4.6,1.7-12.2,5.1-22.9l8.3-25.9h-1l-21.1,4.4c-5.7,15.1-9.4,27.8-11,38.1l-2.6,2.8c-4.3,4.5-7.1,6.9-9.6,8.5
				c-2.8,1.8-5.5,2.7-8.4,2.7c-2,0-3.7-0.8-5-2.5c-1.3-1.6-2-3.8-2-6.4c0-3.9,1-9,2.9-15.5l5.5-18.7l12.8-1l2.7-12.7l-11.6,0.6
				l8.6-28.8l-22.2,4.6l-7.8,25.8l-7.9,0.3l-2.7,13.1l6.5-0.3l-3.6,12.7c-1.7,5.7-2.9,10.7-3.6,15.1c-1.6,1.9-4.1,4.8-4.3,5.1l0,0
				l0,0c-7.1,7.9-11.5,10.7-15.1,10.7c-2.7,0-4.1-1.7-4.1-5c0-2.5,1.6-8,4.9-16.4c4.8-12.2,7.2-21,7.2-26.3c0-3.2-0.9-5.9-2.8-8
				c-1.9-2.1-4.2-3.2-7-3.2c-4.2,0-8.9,1.9-14.2,5.9c-5.3,3.9-12.5,10.9-21.6,21c1.3-6.6,4.1-15.5,8.4-26.8l-20.2,3.9
				c-4.6,9.9-7.9,18.9-9.9,26.8c-1,4-1.8,8-2.3,12.2l-1.2,1.2l-0.3,0.3l-0.3,0.3l-0.3,0.3l-0.2,0.2c-6,6-9.5,8.8-12.6,10.6
				c-3.3,2-6.8,2.9-10.4,2.9c-9.3,0-15.1-5.4-17.3-16.3c24.2-7.1,36.3-16.4,36.3-27.8c0-4.3-1.6-7.8-4.6-10.4c-3.1-2.7-7.2-4-12.3-4
				c-9.9,0-18.9,4.7-27,14.2c-7.4,8.7-11.4,18.2-12.1,28.7l-0.9,0.9v0l-0.6,0.6l-0.3,0.3l-0.3,0.3l-0.3,0.3l-0.1,0.1
				c-5.9,5.7-9.3,8.5-12.4,10.5c-3.4,2.1-6.5,3.2-9.5,3.2c-2.9,0-5.3-1.4-7-4.2c-1.8-2.8-2.7-6.6-2.7-11.4c0-2.2,0.2-6.1,0.7-11.9
				c11-12,19.1-23.2,24.3-33.8c5.2-10.5,7.8-21.5,7.8-32.7c0-4-0.5-7.2-1.5-9.5c-1-2.3-2.3-3.5-3.9-3.5c-0.3,0-0.8,0.1-1.5,0.3
				l-21,7.8c-7.2,13.7-13.3,28.7-18.3,44.9c-4.5,14.6-7,27.2-7.4,38.1c-3.3,3.4-6.6,6.6-10.2,9.8c-2.6,2.3-4.9,3.5-7.1,3.5
				c-3.4,0-5.1-2.4-5.1-7.2c0-4.6,1.9-12.9,5.7-25.2l7.3-24.4h-4.7l-17,9.5c-2.7-6.4-7.6-9.5-14.5-9.5c-5.5,0-11.8,2.3-18.9,7
				c-7.1,4.6-13,10.7-17.5,18.2c-4.6,7.5-6.8,15.4-6.8,23.7c0,6.6,1.7,12.2,5.1,16.8c3.4,4.6,7.5,6.8,12.4,6.8c5,0,9.8-1.9,14.4-5.7
				c4.7-3.8,9.8-9.6,15.3-17.5c-0.5,15.4,3.6,23.2,12.3,23.2c3.5,0,7.1-1.3,10.9-3.8c3.7-2.5,8.9-6.9,17.3-14.8v0l0.7-0.7l0-0.1
				l0.4-0.5c0.7,5.2,2.4,9.5,5.1,12.9c3.6,4.6,8.4,6.9,14.3,6.9c5.1,0,10.5-1.6,16.2-4.9c5.2-3,10.5-6.9,17.1-12.9l0,0l2.6-2.3
				c0.9,5.1,3.1,9.4,6.4,12.9c4.6,4.8,10.7,7.2,18.2,7.2c6.7,0,12.9-1.6,18.5-4.9c5.3-3.1,9.8-6.4,16.2-12.7l1.9-1.7
				c0,0.9,0,1.8,0,2.6c0,3.6,0.3,9.2,0.9,16.7l18.3-4.3c0-5,0.1-8.9,0.3-11.9c0.3-3.9,0.8-8.3,1.6-12.9c0.5-2.8,1.8-5.4,3.8-7.9
				l4.6-5.4c1.7-2,3.3-3.8,4.8-5.3c1.7-1.8,3.3-3.4,4.6-4.6c1.6-1.4,2.9-2.5,4.1-3.3c1.3-0.8,2.3-1.2,3.1-1.2c1.4,0,2.1,0.9,2.1,2.7
				c0,1.8-1.3,6-3.9,12.6c-4.9,12.2-7.3,21.3-7.3,27.3c0,4.4,1.1,7.9,3.4,10.5c2.3,2.6,5.3,3.9,8.9,3.9c8.8,0,18-4.8,30.1-17.4
				l1.9-1.9c0.3,5.4,1.8,9.8,4.4,13.3c2.9,4,6.8,6,11.5,6c4.6,0,9.4-1.6,14.5-4.9c4.8-3.1,8.9-6.4,15.3-12.6l0,0l1-0.9l0,0l0.8-0.9
				v0.4c0,5.5,1.2,10,3.6,13.6c2.4,3.6,5.4,5.4,8.9,5.4c6.2,0,14-4.8,26.3-17.4l1.9-1.9c0,0.9,0,1.8,0,2.7c0,3.6,0.3,9.2,0.9,16.7
				l18.3-4.3c0-5,0.1-8.9,0.3-11.9c0.3-3.9,0.8-8.3,1.6-12.9c0.5-2.8,1.8-5.4,3.8-7.9l4.6-5.4c1.7-2,3.3-3.8,4.8-5.3
				c1.7-1.8,3.3-3.4,4.6-4.6c1.6-1.4,2.9-2.5,4.1-3.3c1.3-0.8,2.3-1.2,3.1-1.2c1.4,0,2.1,0.9,2.1,2.7c0,1.8-1.3,6-3.9,12.6
				c-4.9,12.2-7.3,21.3-7.3,27.3c0,4.4,1.1,7.9,3.4,10.5c2.3,2.6,5.3,3.9,8.9,3.9c8.8,0,18.5-5.4,30.7-18l0,0l1.2-1.2l0,0l0.9-1
				c0.9,5.2,3.1,9.5,6.4,13c4.6,4.8,10.7,7.2,18.1,7.2c6.7,0,12.9-1.6,18.5-4.9c5.6-3.3,11.9-8.4,18.9-15.3v-9.5
				c-6.6,6.7-11.6,11.1-14.9,13c-3.3,2-6.8,2.9-10.4,2.9c-9.3,0-15.1-5.4-17.3-16.3c24.2-7.1,36.3-16.4,36.3-27.8
				c0-4.3-1.6-7.8-4.6-10.4c-3.1-2.7-7.2-4-12.3-4c-9.9,0-18.9,4.7-27,14.2c-7.3,8.6-11.4,18.1-12.1,28.5L1973.7,649.5L1973.7,649.5
				z M1548.7,659.7c-2.3,0-4.1-0.9-5.6-2.8c-1.5-1.9-2.2-4.3-2.2-7.3c0-7.9,2.5-16.5,7.4-25.9c4.9-9.4,10.1-14.1,15.7-14.1
				c2.3,0,4.2,0.9,5.5,2.6c1.4,1.8,2.1,4.2,2.1,7.3c0,7.9-2.4,16.6-7.3,26C1559.4,655,1554.2,659.7,1548.7,659.7L1548.7,659.7z
				 M1632.4,622.9c3.8-18.3,7.6-32.6,11.5-42.7c3.9-10.2,6.8-15.3,8.9-15.3c0.9,0,1.7,0.6,2.3,1.9c0.6,1.2,0.9,2.9,0.9,4.9
				c0,7-2.2,15.3-6.5,25C1645.1,606.4,1639.4,615.1,1632.4,622.9L1632.4,622.9z M1682.8,639.9c0-8.8,1.6-16,4.9-21.6
				c3.3-5.5,6.8-8.3,10.4-8.3c3.8,0,5.7,2.6,5.7,7.9C1703.8,628.6,1696.8,635.9,1682.8,639.9L1682.8,639.9z M1894,570.8
				c0,13.2-4.9,19.8-14.6,19.8c-4.7,0-8.8-1.4-12.2-4.3c3.2-4.9,5.7-10.3,7.5-16.4c4.4,2.7,7.9,4.1,10.5,4.1
				C1888.1,574.1,1891,573,1894,570.8L1894,570.8z M1995.6,639.9c0-8.8,1.6-16,4.9-21.6c3.3-5.5,6.8-8.3,10.4-8.3
				c3.8,0,5.7,2.6,5.7,7.9C2016.6,628.6,2009.6,635.9,1995.6,639.9L1995.6,639.9z M2062.1,555.1c8.8,4.6,13.2,11.1,13.2,19.5
				c0,7-2.8,13.3-8.4,19c-5.6,5.7-13.9,10.4-24.7,14.2l-1.2-5.1c6.3-3.4,11-6.5,14-9.3c3.1-2.8,4.6-6.1,4.6-10
				c0-4.9-2.8-8.4-8.5-10.4c-1.7-0.5-2.6-1.1-2.6-1.7c0-0.5,1-1.8,2.9-3.9C2056.5,562.3,2060,558.1,2062.1,555.1L2062.1,555.1z
				 M2084.7,606.6c-4.7,13-13.8,26.7-27.3,41v7.5h1.9c9.8-10.8,18-21.4,24.4-31.7c1.2,3.9,3.7,8.8,7.5,14.6
				c3.8,5.8,5.6,10.4,5.6,13.9c0,3.6-1.5,7-4.4,10.1c-2.9,3.1-6.1,4.7-9.5,4.7c-3.4,0-5.7-2.3-7.1-6.8c-1.4-4.5-3-6.8-4.7-6.8
				c-1.3,0-3.5,1.8-6.6,5.5c-3.1,3.7-4.6,6.2-4.6,7.5c0,2.3,1.6,4.4,4.6,6.4c3.1,2,6.5,3,10.3,3c8.7,0,17.1-3.9,25.2-11.8
				c8.1-7.8,12.2-16,12.2-24.4c0-4.3-1.7-8.9-5-13.9c-3.3-5-5-8.9-5-11.8c0-2.3,0.5-4.7,1.4-7.3c0.5-0.9,0.7-1.7,0.7-2.6
				c0-0.4-0.3-0.6-0.8-0.6c-0.8,0-3.1,0.3-7,1C2092.4,604.8,2088.5,605.6,2084.7,606.6z"/>
			<path id="Txt1" class="st11" d="M1668,453.2v53.7h-13.1v-22.1h-20.4v22.1h-13.1v-53.7h13.1v21h20.4v-21H1668L1668,453.2z
				 M1719,497.4h-20.1l-3.2,9.5H1682l19.4-53.7h15.2l19.4,53.7h-13.9L1719,497.4L1719,497.4z M1715.6,487.3l-6.7-19.7l-6.6,19.7
				H1715.6L1715.6,487.3z M1791,470.5c0,3.1-0.7,6-2.1,8.5c-1.4,2.6-3.6,4.7-6.6,6.2c-3,1.6-6.6,2.4-11,2.4h-8.1v19.3H1750v-53.7
				h21.2c4.3,0,7.9,0.7,10.9,2.2c3,1.5,5.2,3.5,6.7,6.1C1790.2,464.1,1791,467.1,1791,470.5L1791,470.5z M1770.2,477.2
				c2.5,0,4.4-0.6,5.6-1.8c1.2-1.2,1.8-2.8,1.8-5c0-2.1-0.6-3.8-1.8-5c-1.2-1.2-3.1-1.8-5.6-1.8h-7.1v13.5H1770.2L1770.2,477.2z
				 M1846.8,470.5c0,3.1-0.7,6-2.1,8.5c-1.4,2.6-3.6,4.7-6.6,6.2c-3,1.6-6.6,2.4-11,2.4h-8.1v19.3h-13.1v-53.7h21.2
				c4.3,0,7.9,0.7,10.9,2.2c3,1.5,5.2,3.5,6.7,6.1C1846.1,464.1,1846.8,467.1,1846.8,470.5L1846.8,470.5z M1826.1,477.2
				c2.5,0,4.4-0.6,5.6-1.8c1.2-1.2,1.8-2.8,1.8-5c0-2.1-0.6-3.8-1.8-5c-1.2-1.2-3.1-1.8-5.6-1.8h-7.1v13.5H1826.1L1826.1,477.2z
				 M1907.8,453.2l-18.6,36v17.8h-13.1v-17.8l-18.6-36h14.8l10.4,22.5l10.3-22.5H1907.8z"/>
			<path id="Txt3" class="st11" d="M1697.6,754.3c5.7,0,10.6,1.1,14.8,3.4c4.2,2.2,7.5,5.4,9.8,9.5c2.3,4.1,3.5,8.7,3.5,14
				c0,5.3-1.2,9.9-3.5,14c-2.3,4.1-5.6,7.2-9.9,9.5c-4.3,2.2-9.2,3.4-14.8,3.4h-20.1v-53.7H1697.6L1697.6,754.3z M1696.8,796.7
				c4.9,0,8.8-1.4,11.6-4.1c2.8-2.7,4.1-6.5,4.1-11.5c0-4.9-1.4-8.8-4.1-11.6c-2.8-2.8-6.6-4.1-11.6-4.1h-6.2v31.2H1696.8
				L1696.8,796.7z M1774.7,798.5h-20.1l-3.2,9.5h-13.7l19.4-53.7h15.2l19.4,53.7h-13.9L1774.7,798.5L1774.7,798.5z M1771.3,788.4
				l-6.7-19.7l-6.6,19.7H1771.3L1771.3,788.4z M1851.8,754.3l-18.6,36V808h-13.1v-17.8l-18.6-36h14.8l10.4,22.5l10.3-22.5H1851.8z"
				/>
			<g id="TxtLove">
				<path class="st11" d="M1916.6,795.2c2.4-1.9,17.2-10.1,27-17.4c26.7-19.9,8.4-44-18-17.2l0,0
					C1922.4,728.3,1872.2,720.9,1916.6,795.2z"/>
				<path class="st11" d="M1609.1,795.7c1.7-2.8,13.9-16.5,21.2-27.4c20-29.8-7.3-47.7-24.5-11l0,0
					C1590.9,725.6,1537.3,736.2,1609.1,795.7z"/>
			</g>
		</g>
		<g>
			<rect y="1376.1" class="st32" width="2500" height="223.9"/>
			<ellipse class="st41" cx="779.7" cy="1482.4" rx="634.4" ry="77.1"/>
			<path class="st41" d="M2183.5,1560.2c79,0,143.5-14.9,143.5-33.2c0-18.3-64.4-33.2-143.5-33.2c-79,0-143.5,14.9-143.5,33.2
				C2040,1545.3,2104.5,1560.2,2183.5,1560.2z"/>
			<g>
				<path class="st5" d="M2500,1329.9c-60-34.9-162.3-2.9-101.3,98.8c-88.3-60.4-226.9-33.2-139.6,94.3
					c-71.7-33.5-165.7-15.6-156.7,77H2500V1329.9z"/>
				<path class="st6" d="M2151.7,1340.2c6.2,2.6,37.7,16.6,78.9,43.7c-1.8,0.7-4.2,1.5-7.3,2.4c-28.4-21.6-67,11.9-87.7,31.6
					c26.1,7.8,78.8,3.2,90.6-24.9l0.2-0.6c5.4-1.6,8.9-3.2,10.9-4.2c19,12.9,39.8,28.4,60.9,46.9c-2.4,0.8-5.5,1.5-8,1.4
					c-25.7-24.2-67.7,4.2-90.5,21.2c24.9,10.9,77.9,12.7,92.9-13.7c0.1-0.3,0.2-0.5,0.3-0.8c4.5-0.5,9-2.1,11.1-2.9
					c18.7,16.8,37.6,35.8,55.7,57.2l-6.7-0.1c-20.1-28-66.7-9.6-92.4,1.9c22,16,73.3,29.3,93.7,6.7c0.5-0.6,0.8-1.2,1.1-1.7
					l10.1,0.1c18.9,23.1,36.9,49,52.7,77.6l2.4-9.6c-6.9-12.1-14.2-23.7-21.8-34.8l1.7-16c26.2-18.2,19.3-73.3,5.6-98.4
					c-15.8,25.8-42.1,73.4-12.3,97.6l-0.9,8.3c-11.8-16.5-24.2-31.9-36.8-46.2c0-1.8,0.2-12.2,0.4-18.7c24.5-20,14.4-74.1-0.6-98.1
					c-14.4,26.8-38,76.2-6.2,98.5c-0.1,3.4-0.2,7.5-0.3,10.9c-16-17.4-32.4-33.1-48.6-47.1l-1.6-14.4c21.2-23.2,4.2-75.1-13.8-96.8
					c-10.7,28.5-27.7,80.5,6.8,98.5l0,0c0,0,0.1,0.1,0.4,0.2l0.7,6.2c-22.9-19.2-45-35-64.7-47.7c-0.6-2.8-1-6.2-1.2-9.4
					c-0.2-2.6-0.3-5-0.3-7c24.5-20,14.4-74.1-0.7-98.1c-14.4,26.8-37.9,76.3-6.1,98.5c0,2.1,0.1,4.5,0.3,7c0.1,1.4,0.2,2.7,0.4,4.1
					c-33.1-20.7-58-32-65.4-35.2c-5.3-45.8-69.8-47.8-105.5-47.3C2066.9,1315.8,2117.9,1355.4,2151.7,1340.2z"/>
				<path class="st6" d="M2271.5,1600H2500v-122.2c-45.7-6.4-96.3,1.1-50,67.2C2383.2,1517.5,2253.4,1515,2271.5,1600z"/>
			</g>
			<g>
				<g>
					<g>
						<path id="Love4" class="st11" d="M675.7,564.8c-3.3-6-27-35.9-41.2-59.7c-38.4-64.5,20.6-98.7,52.4-20.3l0,0
							C721.6,420.5,832.5,448.7,675.7,564.8z"/>
						<path id="Love3" class="st11" d="M792.7,448.3c-2.6-2.9-19.7-16.7-30.6-28.1c-29.6-31.2-1-57.8,26.7-18l0,0
							C800,361.9,865.5,363.6,792.7,448.3z"/>
					</g>
					<path id="Love2" class="st11" d="M301.1,715.1c-3.3-2.5-24-13.5-37.7-23.3c-37.3-26.7-12.7-60.3,24.4-24.2l0,0
						C291.3,623.1,360.3,611.6,301.1,715.1z"/>
					<path id="Love1" class="st11" d="M1107.4,858.2c2.4-1.8,17.4-9.8,27.4-16.9c27.1-19.4,9.2-43.8-17.7-17.6h0
						C1114.4,791.3,1064.4,783,1107.4,858.2z"/>
				</g>
				<g>
					<g>
						<path class="st42" d="M613.7,1243.4c0,0,59.4,5,114.9,33.8c55.5,28.9-5.5,182-5.5,182s-81,45.5-160.9,57.2
							c-79.9,11.7-195.9,7.8-238.6-12.8c-42.7-20.5-49.9-67.8-49.9-67.8L613.7,1243.4z"/>
						<path class="st43" d="M1105.6,1044.7c0,0,0.8,83.8-6.7,95.7c-7.5,11.9-31.4,23.3-31.4,23.3l11.7-107.7L1105.6,1044.7z"/>
						<path class="st16" d="M621.4,1232.8c0,0,37.2,43.8,44.4,63.3c7.2,19.4-11.1,123.8-82.7,173.1c-71.6,49.4-276.9,26.1-300.8,1.7
							c-23.9-24.4-44.4-123.2-35.5-163.7C255.7,1266.7,621.4,1232.8,621.4,1232.8z"/>
						<path class="st19" d="M245.9,1312.3c0.3-1.8,0.6-3.5,0.9-5.1c1.3-6.1,10.9-12.1,26-17.8c98-17.2,347.1-29.4,347.1-29.4
							l3.5,17.5c0,0-13.5,87.5-63.5,107.5C514.2,1403.3,300.8,1342,245.9,1312.3z"/>
						<path class="st11" d="M622.5,969.6c0,0-4.4,33.3,14.4,76.6c6.7,15.3,68.8,115.5,84.4,133.2c11.7,13.3,19.4,23.6,20,28.6
							c0.6,5-10.3,15.5-21.6,62.4c-12.4,51.1-16.7,170.4-6.7,202c10,31.6,137.1,56.1,263.6,52.2c126.5-3.9,194.8-63.3,198.7-82.1
							c3.9-18.9,12.2-106.6-25-167.6c-37.2-61-47.2-57.7-57.2-82.7c-10-25-11.1-120.4-6.7-125.4c4.4-5,49.9-32.7,53.8-52.2
							c15.6-78.2-111.5-237.3-233.6-229.5c-34.4,2.2-145.4,58-162.6,88.5c-17.2,30.5-17.2,30.5-17.2,30.5L622.5,969.6z"/>
						<path class="st44" d="M907.3,1044.6c17.3,0,31.3,14,31.3,31.3c0,17.3-14,31.3-31.3,31.3c-17.3,0-31.3-14-31.3-31.3
							C876,1058.6,890,1044.6,907.3,1044.6z"/>
						<path class="st44" d="M635.7,1043.3c0.4,1,0.8,1.9,1.2,2.9c2.7,6.1,14.3,25.9,28.2,48.6c14.3-2.9,25.1-15.5,25.1-30.7
							c0-17.3-14-31.3-31.3-31.3C649.7,1032.9,641.4,1036.9,635.7,1043.3z"/>
						<path class="st44" d="M1119.9,929.4c-9.3-17.1-21.2-34.4-35.1-50.8c-6,5.7-9.8,13.8-9.8,22.7c0,17.3,14,31.3,31.3,31.3
							C1111.2,932.5,1115.8,931.4,1119.9,929.4z"/>
						<path class="st44" d="M1003.9,868.3c17.3,0,31.3,14,31.3,31.3c0,17.3-14,31.3-31.3,31.3c-17.3,0-31.3-14-31.3-31.3
							C972.7,882.3,986.7,868.3,1003.9,868.3z"/>
						<path class="st44" d="M855.7,809.9c17.3,0,31.3,14,31.3,31.3c0,17.3-14,31.3-31.3,31.3c-17.3,0-31.3-14-31.3-31.3
							C824.4,823.9,838.4,809.9,855.7,809.9z"/>
						<path class="st12" d="M754.7,861c-2,1.9-3.9,3.8-5.5,5.6c14.4,5.2,60.4,21.9,60.7,23.5c0.4,1.9,30-30,65-45
							c35-15,64.9-44.4,64.9-44.4S925,795,915,795L754.7,861z"/>
						<path class="st45" d="M838.1,867.1c10.6-7.9,23.3-16.3,36.9-22.1c4-1.7,8-3.7,11.9-5.7c-0.7-11.2-7.3-20.9-16.7-25.8
							l-44.3,18.2c-1,3-1.5,6.2-1.5,9.5C824.4,852,829.9,861.5,838.1,867.1z"/>
						<path class="st12" d="M622.5,969.6c0,0-1.1,8.1,0.1,21.6c49.2,26.9,202.3,107.9,252.4,103.8c60-5,155.8-236.1,155.8-236.1
							l-163,114.7l-211-25.5L622.5,969.6z"/>
						<path class="st45" d="M881.5,1093.6c14.3-4.7,30.2-20.3,46.1-41.5c-5.5-4.7-12.6-7.5-20.3-7.5c-17.3,0-31.3,14-31.3,31.3
							C876,1082.5,878,1088.6,881.5,1093.6z"/>
						<path class="st45" d="M998.3,930.3c10.9-22.3,19.7-41.9,25.4-54.9c-2.7-2.2-5.7-3.9-9-5.2l-42.1,29.6
							C972.8,915,983.8,927.6,998.3,930.3z"/>
						<path class="st12" d="M741.3,1208c0.3,2.5-2.3,6.4-6.4,15.7c110,49.6,268.6,42,367.8-14.4c-3.4-4.5-6.2-9-8.9-15.6
							C953,1223.7,741.3,1208,741.3,1208z"/>
						<path class="st12" d="M707.8,1382.7c-1.1,38.6,0.4,74.4,5.2,89.7c10,31.6,137.1,56.1,263.6,52.2
							c126.5-3.9,194.8-63.3,198.7-82.1c3.6-17.6,11.1-94.8-17.9-154.6C1144.5,1469.3,776.9,1534,707.8,1382.7z"/>
						<path class="st46" d="M1084.2,1084.1L1084.2,1084.1L1084.2,1084.1L1084.2,1084.1L1084.2,1084.1z M1085,1073.4
							c0.4-3.6,0.3-5.4,1.5-6.6c1.1-1.3,12.8-9.7,21.8-16.5c-9.1-72.8-33.6-128.1-26.3-86C1089.1,1006.3,1086.3,1051.8,1085,1073.4z
							"/>
						<path class="st47" d="M562.2,528.7c0.8,1.7,16.1,23.3,14.4,30c-1.7,6.7-1.1,16.4,6.7,26.1c7.8,9.7,8.3,29.7,8.3,29.7
							l-55.2,110.4l-138.5,13.3l-4.4-77.4C393.5,660.8,463.7,528.5,562.2,528.7z"/>
						<path class="st48" d="M530.8,725.4l-132.9,12.8l-2.2-38.3c10.9,3.5,22,5.3,33,4.4c60.5-5,84.2-49.5,84.2-49.5l28.6-4.6
							C541.9,683,537.8,707.3,530.8,725.4z"/>
						<path class="st49" d="M493.1,733.5c0,0-5.6-71.6,46.1-104.9c53.8-34.7,90.3-19.7,123.7-5.7c77.5,32.4,114.9,129.3,139.3,141.5
							c27.7,13.9,49.4-9.3,118.8,16.2c82.2,30.2-106.1,50.2-142.9,113.1C778.1,893.8,607.3,750.1,493.1,733.5z"/>
						<path class="st50" d="M678.7,630.7c4.3,2.4,8.4,5,12.4,7.8C685.3,670,680,710,657,697.9c-23-12.1-13.6,63.8-47,37.1
							c-33.3-26.6-39.1,7.8-45.3,20.7c-7.6-3.3-17.3,17-24.7,14.3c7.7-22.3,13.7-65,35-65c21.3,0,35,20,45-5c10-25,20-40,35-35
							C670,670,672.9,650.8,678.7,630.7z"/>
						<path class="st16" d="M620.7,793.4l-13.3-43.3c0,0-101.6-31.1-113.2-31.6c-11.7-0.6-86.6,0.6-100.4,3.9
							c-13.9,3.3-53.3,11.1-127.1,76.6c-73.8,65.5-77.1,84.4-83.2,110.4c-6.1,26.1-34.6,113.3-35,113.2l77.1,15l47.2,197
							c0,0,8.3,37.2,16.6,37.2c8.3,0,137.6,6.1,149.3,8.9c11.7,2.8,73.8,1.1,73.8,1.1l104.3-316.9L620.7,793.4z"/>
						<path class="st51" d="M268.3,1216.1l4.4,18.4c0,0,6.3,28.1,13.4,35.4H415c50,0,102.3-3.1,102.3-3.1l99.4-302l0.8-36.1
							c0,0-49.3-22.9-45.9-5.9c3.3,17.1-48.3,256-111.7,297.1s-159.4,19-175,10C279,1226.5,273.2,1221.3,268.3,1216.1z"/>
						<path class="st19" d="M194.6,877c-6.7,12.1-8.7,21.6-11.3,32.3c-5.1,21.8-25.9,86.4-32.8,106.9c-1.3,4-2.3,6.3-2.2,6.3
							l6.7,1.3l70.4,13.7l1.5,6.5C225.2,1036,197.6,919.4,194.6,877z"/>
						<path class="st47" d="M154.7,1023.8c-7.7,21.6-29.6,99.1-31,132.5c-1.7,39.1-0.3,45.8,4.7,50.8c4.2,4.2,99.5,22.7,144.3,27.5
							l0,0l-47.2-197L154.7,1023.8z"/>
						<path class="st48" d="M258.7,1176.1l-20.7-86.3c-5.7,14.6-21.3,57.7-13.1,70.1C229.3,1166.4,243.7,1171.9,258.7,1176.1z"/>
						<path class="st49" d="M568.3,532.2c-3.4,9.5-8.1,25.5-6,32.1c2.8,8.6,8.9,37.7,6.7,38c-2.2,0.3-8.9,2.5-11.1-4.2
							c-2.2-6.7-8-33.9-19.4-39.1c-11.4-5.2-28.9,23.6-33,35.5c-4.2,11.9-21.4,58-35.2,66c-13.9,8-60.5,18.3-71.6,9.7
							c-11.1-8.6-67.1-79.6-66-142.9c0.9-50,37.5-89.3,84.1-102.7l0,0c17.6-4.3,119.1-28.5,128.4-14.6c7.3,11,1.2,40.7-2.5,55.8
							C542.4,465.9,578.4,504.2,568.3,532.2z"/>
						<path class="st50" d="M332.9,520.4c0.6-7.3,2-14.4,4.1-21.1c23.5-19.7,61.8-47.3,63.4-23.4c1.6,23.9,64.7-37.2,69.6-10.8
							c4.9,26.4,43.7,1.1,76.3-17c-1.2,6.7-2.6,13-3.8,17.9c-35.8,22.9-100.7,61.8-97.1,40c5-30-80,45-70,10
							C381.9,492.8,353.3,507.5,332.9,520.4z"/>
						<g>
							<path class="st48" d="M525.2,564l-4.3-2.4c-13.7,22-6.5,67.1,24.9,61.5C545.8,623.2,518.4,603.6,525.2,564z"/>
							<path class="st52" d="M548.1,622.1c-4.4,6.1-26.9-14.4-28.9-43c-2.8-41.6,34.4-32.8,22-18.6C521,583.5,554.7,613,548.1,622.1
								z"/>
						</g>
						<path class="st43" d="M610.6,975.9c-11.3,21.5-26.1,55-42.9,106c-38.3,116-56.6,167-67.1,170.4c-10.5,3.3-204.8,0-217.8-7.2
							c-4.8-2.7-8.2-11.2-10.9-20.9v0l-10.6-37.1l-0.3-1.3c-6.2-2.8-29.8,24.9-41.5,33.5c-24.8,18.3-17.6,89.8,16.9,92.7
							c10,0.8,25-5.3,36.9-0.8c11.9,4.4,265.5,74.1,286.9,61c21.4-13,65.2-82.7,93.5-172.6c12.2-38.7,19.4-66.1,23.7-84.9
							c-18.9-30.1-37.1-60.5-40.6-68.4c-12.3-28.3-14.7-52.2-14.9-65.5C618.5,979.4,614.7,977.8,610.6,975.9z"/>
						<path class="st53" d="M610.6,975.9c-11.3,21.5-26.1,55-42.9,106c-9.1,27.4-17,51.2-24,71.6h0c0,0,22.7-35.8,35.1-57.7
							c8.8-15.6,34.8-45.4,51.7-66.3c-6.8-20.9-8.4-38.3-8.5-48.8C618.5,979.4,614.7,977.8,610.6,975.9z"/>
						<path class="st53" d="M216.6,1299.9c5,6.7,11.7,11.3,19.9,12c10,0.8,25-5.3,36.9-0.8c11.9,4.4,265.5,74.1,286.9,61
							c13.2-8.1,35-37.8,56.5-80.6c-0.2,0.2-54,43.5-99.5,43.5c-45.5,0-226.4-37.7-247-37.7C249.8,1297.3,227.2,1306.5,216.6,1299.9
							z"/>
						<path class="st42" d="M646.5,1318c-0.1-1.4,0.8-2.6,2.2-2.8c1.4-0.2,2.6,0.8,2.8,2.2c0.4,3.2-13.9,50.9-44.7,92.4
							c-16.4,22.1-37.5,42.5-63.6,53.9c-27.4,12-66,15.9-104.6,15.7c-66.6-0.3-133.7-12.7-144.2-16.7c-1.3-0.5-1.9-1.9-1.4-3.2
							c0.5-1.3,1.9-1.9,3.2-1.4c10.3,3.9,76.5,16.1,142.4,16.4c38,0.2,75.8-3.7,102.6-15.3c25.2-11,45.6-30.9,61.6-52.3
							C632.8,1366.5,646.8,1321,646.5,1318z"/>
						<path class="st42" d="M390.9,738.3c-1.4-0.2-2.3-1.4-2.2-2.8c0.2-1.4,1.4-2.3,2.8-2.2c3.7,0.5,28.1,0.9,54.1-0.6
							c15.2-0.9,30.8-2.5,43.1-5.2c1.3-0.3,2.7,0.6,3,1.9c0.3,1.3-0.6,2.7-1.9,3c-12.5,2.7-28.5,4.4-43.9,5.3
							C419.5,739.3,394.6,738.8,390.9,738.3z"/>
						<path class="st12" d="M854.7,1435c87.7-38.2,166.5-106.8,208.9-193.4C1073.2,1221.8,1038.7,1435,854.7,1435z"/>
						<path class="st19" d="M290,1360.6c0,0,38.6,31.2,106.8,48.1c68.2,16.9,121.1,8.7,123.2,11.9c2.1,3.2-65,20-125,10
							C335,1420.6,281.7,1358.5,290,1360.6z"/>
						<path class="st19" d="M284.4,1032.4c58.8,75,187.4,103.2,187.4,106.8c0,1.4-211.4,13.2-221.7-150.7c-1-16.1,3.5-30.5,4.1-28.4
							C263.4,991.1,262.3,1004.2,284.4,1032.4z"/>
						<path class="st47" d="M979.3,804.3c-6.4,12.2-17.6,28.3-36.7,42.6c-33.7,25.2-70.5,26.1-94.3,54.9l-58.1-35
							c-15.2-9-30.5-17.9-45.8-26.8l-7.6,5.5c-10.5,7.9-30.2,24-55.6,50.1c-38.3,39.4-41.1,84.9-41.1,84.9s145.4,69.4,172.6,83.2
							c27.2,13.9,64.9,9.4,87.7-0.6c43.7-19.2,101.6-174.3,145.5-224.7c5.5-6.4,12.8-31.4-3.6-56.1c-16.4-24.7-54.1-37.2-83.8-32.2
							c-25.3,4.2-29.4,26.6-30,33.2c2.4,1,4.6,2,6.4,2.9c7,1.2,18,3.2,25.5,5.2C971.9,794.7,979.3,804.3,979.3,804.3z"/>
						<path class="st48" d="M690,880c-19.1,31-49.9,100.7-49.9,100.7s145.4,69.4,172.6,83.2c27.2,13.9,64.9,9.4,87.7-0.6
							c26.7-11.7,58.6-73.9,89.4-132.1c-3.4,6.3-60.9,107.3-117.3,103.5C816,1031,680,970,690,880L690,880z M989.9,931L989.9,931
							L989.9,931L989.9,931z"/>
						<path class="st19" d="M759.4,844.2c0,0-17.8,8.6-60.2,52.2c-42.5,43.6-54.1,91.6-54.1,91.6s-14.6-2.8-35.4-12.4
							c-33.1-15.3-50.5-85.6-53.4-116.9c-7.8-83.8,51-108.4,51-108.4c9.4,0.6,72.7,21.1,102.7,46.6
							C740,822.2,759.4,844.2,759.4,844.2z"/>
						<path class="st42" d="M728.9,837.7c1.2-0.6,2.7-0.1,3.3,1.2c0.6,1.2,0.1,2.7-1.2,3.3c-0.2,0.1-64.1,29.6-93.7,113.6
							c-0.5,1.3-1.9,2-3.2,1.5c-1.3-0.5-2-1.9-1.5-3.2C663,868.2,728.7,837.8,728.9,837.7z"/>
						<path class="st44" d="M893.7,1240c17.2,0,31.3-14,31.3-31.3c0-17.2-14-31.3-31.3-31.3c-17.2,0-31.3,14-31.3,31.3
							C862.5,1226,876.5,1240,893.7,1240z"/>
						<g>
							<g>
								<g>
									<path class="st46" d="M687.8,698.2l1.1,5.1c0,0,15.1,7.6,17.8,9c2.7,1.4,38.1,5.9,41.3,4.8c3.2-1.1,31.7-8,31.8-10
										c0.1-2-1.5-21-1.5-21L743,645.2l-14.3-6.8l-21.5,29.8L687.8,698.2z"/>
									<path class="st5" d="M781.5,709c-1.5-0.6-2.3-2.4-1.6-3.9c0.6-1.5,2.4-2.3,3.9-1.6c0.4,0.1,101.2,42.2,164.8,64.5
										c-0.4,1.7-1.2,3.8-2.4,5.5C882.2,750.9,781.8,709.1,781.5,709z"/>
									<path class="st11" d="M744.3,726.4c0,0-15.9,0.2-32.3-2.4c-16.4-2.6-10.5-12-8.1-17c2.4-5,9.5-35.1,19.7-32.6
										c10.2,2.5,33.8,22.9,37.4,23.4c3.6,0.5,4.8-0.5,4.1-0.8c-0.8-0.3-34.6-23.5-35.8-28.7c-1.3-5.3,12.1-30.3,18.8-31.6
										c6.8-1.3,9,25.7,21.5,36.9c12.5,11.2,4.9,39.5,0.3,44.6C765.3,723.1,744.3,726.4,744.3,726.4z"/>
									<path class="st5" d="M779.8,678.2c0,0,13.5,8.4,7.9,28.2c-5.6,19.8-26.8,19.3-36.3,21.5c-9.5,2.1-11.9,1.3-13.6,4.9
										c-1.7,3.6-0.3-6.5,6.4-10.1c6.8-3.6,12.6-0.3,16.8-6.5c4.1-6.3-15-8.1-18.7-8.3c-3.7-0.2-3.7-0.2-3.7-0.2
										c25.9-5.6,27.4-13.7,8.7-31.8c0,0,17.4,10.8,22.8,7.2c5.4-3.5-3.6-7.5-6.5-15.3c-2.9-7.8,0.9-12.5,1.1-10.5
										C764.9,659.2,766.6,669.7,779.8,678.2z"/>
									<path class="st54" d="M729.2,668.2c-3-2.2,1.1-13.3,6.8-22.1c12.6-19.3,24-9.7,16.6,3.8
										C747.1,660.2,733.5,671.2,729.2,668.2z"/>
									<path class="st29" d="M742,638.8c9.9-8.9,16.9-0.3,10.7,11.1c-1.8,3.4-4.5,6.8-7.5,9.8c-5-1-10.7-3.9-9-9.2
										C737.2,647.4,739.1,642.5,742,638.8z"/>
									<path class="st55" d="M750.8,653c-1.6,2.4-3.5,4.7-5.6,6.8c-4.7-1-10.1-3.6-9.2-8.4c0,0.2-0.2,3.3,3.4,2.8
										c3.8-0.5,3.7-6.3,3.7-6.3L750.8,653z"/>
									<path class="st54" d="M696.6,678.9c4.8,5,20-14.6,21.4-22.1C721.9,635.6,691.3,673.4,696.6,678.9z"/>
									<path class="st29" d="M729.7,639.5c0,0,3.1,4.9-1.9,15.5c-5,10.5-9,13.9-11.4,11.5c-2.5-2.4-3-21.8,3.3-27.3
										C726,633.7,729.7,639.5,729.7,639.5z"/>
									<path class="st29" d="M710.7,669.4c-2.6,2.9-11.6,10.8-22.2,17.1c-10.5,6.3-5.3,18.5,4.1,16.8c9.5-1.7,27-28.1,25.7-32.3
										C717,666.9,712.7,666.9,710.7,669.4z"/>
									<path class="st54" d="M695.7,717.9c1.6-8.7,16-44.8,26.4-44.1c3.4,0.2,4.4,6.3,3.7,13.7
										C721.9,730.8,693.8,728.3,695.7,717.9z"/>
									<path class="st29" d="M712.4,681c1.5-2.1,3.1-3.8,4.6-5.1c1.5-0.9,3-1.6,4.3-2.1c0.3,0,0.5,0,0.8,0
										c3.4,0.2,4.4,6.3,3.7,13.7c-0.9,9.6-2.9,16.9-5.6,22.4c-2.6-0.5-11.2-1.7-13-2.7c-1.2-0.7-1.9-2-1.5-4.5
										C706.7,697.1,708.6,687.4,712.4,681z"/>
									<path class="st55" d="M724.1,698.7c-1,4.3-2.3,8-3.8,11.1c-2.6-0.5-11.2-1.7-13-2.7c-0.9-0.5-1.5-1.3-1.6-2.6
										c1.1,3.7,4.4,2,5.5-1.4c1.1-3.3,1.3-7.8,1.3-7.8L724.1,698.7z"/>
								</g>
								<path class="st56" d="M946,765.1c-0.6-1.3,0-2.7,1.3-3.3c1.3-0.6,2.7,0,3.3,1.3c0,0,4.8,11.3-11.8,18
									c-1.3,0.5-2.7-0.1-3.3-1.4c-0.5-1.3,0.1-2.7,1.4-3.2C948.8,771.7,946,765.2,946,765.1z"/>
							</g>
							<path class="st5" d="M846.3,721.8c1.1-4.1,3.7-13.6,2.5-24c-1.6-13.3-13.1-26.4-13.1-26.4s-4.7,14.2-4.1,28.7
								c0.4,11.2,8.6,19.2,12.4,22.3l0.5,6.4c-0.8,0-1.8-0.1-2.8-0.1l3.2,1.2c0,0-1.9,0.5,1.9-0.9L846.3,721.8L846.3,721.8z
								 M837.9,728.8l0.7,2.3c-3.2,0.1-6,0.3-8.3,0.7c-2.4,3.2-8.5,11.3-17.9,16.7c-11.6,6.8-28.9,5.4-28.9,5.4s8.6-12.3,20.5-20.6
								c8.8-6.1,19.6-4.8,24.6-3.7C831.1,729.3,834.2,729,837.9,728.8z"/>
						</g>
						<path class="st19" d="M345.2,919c-4.6-1.9,35.1,19.8,76.1-1.2c41-21,48.6-39.5,53.2-37.6c4.6,1.9-29.3,58.2-58.1,62.6
							C387.7,947.2,346.1,930.1,345.2,919z"/>
						<path class="st57" d="M694.1,1093.7c0.7,1.2,0.4,2.7-0.8,3.4c-1.2,0.7-2.7,0.4-3.4-0.8c-0.8-1.3-2.1-3.2-3.5-5.4l-0.1-0.1
							c-11-16.8-32.7-50.1-43.7-94.3c-0.3-1.3,0.5-2.7,1.8-3c1.3-0.3,2.7,0.5,3,1.8c10.8,43.4,32.3,76.2,43.1,92.8l0.1,0.1
							C691.9,1090.2,693,1091.9,694.1,1093.7z"/>
						<path class="st12" d="M872.4,1347.6c-0.3,4.4-57.4,12.4-92.4-2.6c-35-15-32.3-62.6-30-65c1.3-1.4,2.8,5.4,4.5,11.3
							C769.4,1343.5,872.6,1343.2,872.4,1347.6z"/>
						<path class="st12" d="M1010,1050c0,5-15,60-70,80c-55,20-85,25-85,30c0,5,95-5,130-30s40-110,35-110S1015,1040,1010,1050z"/>
						<path class="st44" d="M776.3,1152.5c17.2,0,31.3-14,31.3-31.3c0-17.2-14-31.3-31.3-31.3c-17.2,0-31.3,14-31.3,31.3
							C745,1138.5,759,1152.5,776.3,1152.5z"/>
						<path class="st44" d="M1033.7,1185c17.2,0,31.3-14,31.3-31.3c0-17.2-14-31.3-31.3-31.3c-17.2,0-31.3,14-31.3,31.3
							C1002.5,1171,1016.5,1185,1033.7,1185z"/>
						<path class="st44" d="M1025,1053.4c17.2,0,31.3-14,31.3-31.3c0-17.2-14-31.3-31.3-31.3s-31.3,14-31.3,31.3
							C993.7,1039.4,1007.7,1053.4,1025,1053.4z"/>
						<path class="st44" d="M803.7,1342.5c17.2,0,31.3-14,31.3-31.3c0-17.2-14-31.3-31.3-31.3c-17.2,0-31.3,14-31.3,31.3
							C772.5,1328.5,786.5,1342.5,803.7,1342.5z"/>
						<path class="st44" d="M954.8,1374.2c17.2,0,31.3-14,31.3-31.3c0-17.2-14-31.3-31.3-31.3c-17.2,0-31.3,14-31.3,31.3
							C923.5,1360.1,937.5,1374.2,954.8,1374.2z"/>
						<path class="st44" d="M1098.7,1405c17.2,0,31.3-14,31.3-31.3c0-17.2-14-31.3-31.3-31.3c-17.2,0-31.3,14-31.3,31.3
							C1067.5,1391,1081.5,1405,1098.7,1405z"/>
						<path class="st44" d="M793.7,1472.5c17.2,0,31.3-14,31.3-31.3c0-17.2-14-31.3-31.3-31.3c-17.2,0-31.3,14-31.3,31.3
							C762.5,1458.5,776.5,1472.5,793.7,1472.5z"/>
						<path class="st44" d="M986.3,1495c17.2,0,31.3-14,31.3-31.3c0-17.2-14-31.3-31.3-31.3c-17.2,0-31.3,14-31.3,31.3
							C955,1481,969,1495,986.3,1495z"/>
						<path class="st44" d="M1143.6,1264.1c-16.2-25.5-26.6-37.7-34.1-46.5c-2.8,4.7-4.5,10.2-4.5,16.1c0,17.3,14,31.3,31.3,31.3
							C1138.8,1265,1141.2,1264.7,1143.6,1264.1z"/>
						<path class="st45" d="M955.4,1374.2c10.5-8.4,20.7-17.4,30.3-26.7C983.5,1362.4,970.8,1373.9,955.4,1374.2z"/>
						<path class="st45" d="M773,1317.2c13.1,10.1,30.7,16.4,47.4,20.5c-4.8,3.1-10.6,4.8-16.7,4.8
							C788.5,1342.5,775.8,1331.6,773,1317.2z"/>
						<path class="st45" d="M818.4,1460.4c-20.4-4.5-39.4-11.3-55.9-20.6c0,0.5,0,0.9,0,1.4c0,17.3,14,31.3,31.3,31.3
							C803.8,1472.5,812.7,1467.8,818.4,1460.4z"/>
						<path class="st45" d="M924.9,1211.3c-21.6,0.7-42.6,0.9-62.2,0.8c1.7,15.7,15,27.9,31.1,27.9
							C910.1,1240,923.6,1227.4,924.9,1211.3z"/>
						<path class="st4" d="M737.3,1218.8c-5.7-1.3-9.3-7-8-12.7c1.3-5.7,7-9.3,12.7-8c0.4,0.1,152.8,35.9,348.4-16.1
							c5.7-1.5,11.5,1.9,13,7.6c1.5,5.7-1.9,11.5-7.6,13C895.2,1255.9,737.7,1218.9,737.3,1218.8z"/>
						<path class="st45" d="M1128.2,1363.4c-11,14.7-24.7,27.9-40.3,39.7c3.4,1.2,7,1.9,10.8,1.9c17.3,0,31.3-14,31.3-31.3
							C1130,1370.1,1129.4,1366.6,1128.2,1363.4z"/>
						<path class="st45" d="M1010.7,1444.2c-17.9,6.5-36.5,11.7-55.4,15.5c-0.2,1.3-0.3,2.7-0.3,4c0,17.3,14,31.3,31.3,31.3
							c17.3,0,31.3-14,31.3-31.3C1017.5,1456.4,1015,1449.6,1010.7,1444.2z"/>
					</g>
					<g>
						<g>
							<path class="st17" d="M1200.2,1368.6l-31.6-16.8c0,0-43.7,29.4-60.4,98.1c-3.3,15.4-2.6,34.9-1.5,46.4
								c0,0,36.9,28.3,114.2,19.4C1298.2,1506.8,1127.8,1474,1200.2,1368.6z"/>
							<path class="st15" d="M1137.3,1389.4c-0.3,0.7-0.6,1.4-0.9,2c-11.1,25-15.9,58.2-8,96.4c32.6,21.3,65.3,29,92.6,27.9
								c115.5-10,65.1-114.7,2.3-92.4C1262.5,1358.9,1177,1303.8,1137.3,1389.4z"/>
						</g>
						<path class="st18" d="M1199.7,1355.4c14.6,4.7,29.1,25,22.6,39.7C1214.1,1413.8,1163.4,1344.8,1199.7,1355.4z"/>
					</g>
				</g>
			</g>
			<g>
				<path class="st41" d="M1988.7,1478.5c-59,10.9-136.5,26.3-80.7,38.5c81.1,17.8-227.4,22-229.2,21.9c-23.1-1.1-88.8-4.3-126.3-15
					c-155.6-44.2,176-64.9,176.1-65C1742.7,1449.6,2046.4,1467.9,1988.7,1478.5z"/>
				<g>
					<path class="st58" d="M1755.7,1523.3c-16.5,0.5-29.8-4.9-54.2-4.6c-18.1,0.2-36.1-0.6-52-5.8c-57.4-18.7,85.9-166.4,101.2-45.8
						c1.3,10.2,8.5,16.1,15.6,20.7C1791.2,1504.3,1782.4,1522.5,1755.7,1523.3z"/>
					<path class="st59" d="M1755.7,1523.3c-16.5,0.5-29.8-4.9-54.2-4.6c-9.4,0.1-18.7-0.1-27.8-1c39.6,2.5,38.1-15.6,64.5-12
						c26.4,3.6,13.3-31.7,13.6-34v0c2.6,7.4,8.6,12.2,14.5,16.1C1791.2,1504.3,1782.4,1522.5,1755.7,1523.3z"/>
					<path class="st60" d="M1644.5,1510.8c-39.7-23.6,51.9-140.6,96.4-75.1c-11.5-12.3-41.3-19-40.4,8.3c0.2,4.9-4.5,6.5-8.9,6.3
						c-23.7-1-13.3,7.8-26.6,21.6C1653.2,1483.9,1638.5,1495.2,1644.5,1510.8z"/>
				</g>
				<g>
					<path class="st58" d="M1823.2,1437.2c18.5,1.8,34.3,24,30.7,32.8c-2.4,5.9-61.8,4.1-63-5.6
						C1789.9,1455.9,1809.6,1435.8,1823.2,1437.2z"/>
					<path class="st60" d="M1823.2,1437.2c0.9,0.1,1.8,0.2,2.7,0.4c-0.8,3.3-2.8,8.6-8.3,8.6c-5.1,0-12.1,3-18.8,3.5
						C1805.6,1442.7,1815.4,1436.4,1823.2,1437.2z"/>
					<path class="st59" d="M1844.5,1448.4c7.3,7.4,11.4,16.6,9.4,21.6c-2.4,5.9-61.8,4.1-63-5.6c-0.1-0.6,0-1.4,0.1-2.1
						C1805.9,1469.8,1844.2,1470.8,1844.5,1448.4z"/>
				</g>
			</g>
		</g>
	</g>
</g>
</svg>
